<?xml version="1.0" encoding="UTF-8"?>
<svg width="780px" height="419px" viewBox="0 0 780 419" version="1.1" xmlns="http://www.w3.org/2000/svg" xmlns:xlink="http://www.w3.org/1999/xlink">
    <!-- Generator: Sketch 64 (93537) - https://sketch.com -->
    <title>Untitled</title>
    <desc>Created with Sketch.</desc>
    <defs>
        <polygon id="path-1" points="0 417.97867 779.173314 417.97867 779.173314 0 0 0"></polygon>
    </defs>
    <g id="Page-1" stroke="none" stroke-width="1" fill="none" fill-rule="evenodd">
        <g id="logo_MAT">
            <g id="Layer-1">
                <g id="g10" transform="translate(390.000000, 209.978670) scale(-1, 1) rotate(-180.000000) translate(-390.000000, -209.978670) translate(0.000000, 0.978670)">
                    <g id="g12">
                        <g id="g14-Clipped">
                            <mask id="mask-2" fill="white">
                                <use xlink:href="#path-1"></use>
                            </mask>
                            <g id="path16"></g>
                            <g id="g14" mask="url(#mask-2)">
                                <g transform="translate(25.333333, 34.666666)">
                                    <g id="g20" transform="translate(89.333331, 131.999997)">
                                        <path d="M12.165733,17.4274662 C13.1723997,21.7514661 14.3603996,27.7394526 15.4843996,33.0181192 L15.6057329,33.0181192 C15.8417196,27.683466 16.1377329,22.1661328 16.4937329,17.7807996 L17.9137196,1.59413329 L24.5550527,1.59413329 L32.7377192,17.9594662 C34.9323858,22.3447994 37.4190524,27.860786 39.613719,33.0181192 L39.7923857,33.0181192 C38.6643857,27.268786 37.7803857,21.7514528 37.1270524,17.4274662 L34.6923858,0.944799976 L42.9963856,0.944799976 L48.3883855,40.9034523 L36.8270524,40.9034523 L29.4190526,25.727466 C27.6950526,22.1087994 25.5657194,17.4274529 24.0230527,12.9807863 L23.7843861,12.9807863 C23.7270527,17.4274662 23.3137194,21.9874528 23.0777194,25.727466 L21.8243995,40.9034523 L10.3843997,40.9034523 L0.372399991,0.944799976 L8.18973313,0.944799976 L12.165733,17.4274662 L12.165733,17.4274662 Z" id="path22" fill="#231F20" fill-rule="nonzero"></path>
                                    </g>
                                    <g id="g24" transform="translate(135.999997, 131.999997)">
                                        <path d="M9.67251976,0.94413331 L14.3578663,11.3174664 L25.855186,11.3174664 L26.629866,0.94413331 L35.6391991,0.94413331 L30.9578659,40.9027856 L19.9885195,40.9027856 L0.540519986,0.94413331 L9.67251976,0.94413331 L9.67251976,0.94413331 Z M20.8205061,26.4361327 C21.8831861,28.7494659 23.0151861,31.8321325 24.0165061,34.2627991 L24.1351727,34.2627991 C24.3178261,31.8321325 24.5525061,28.6307993 24.6698394,26.4361327 L25.4978394,17.8401196 L16.8444929,17.8401196 L20.8204795,26.4361327 L20.8205061,26.4361327 Z" id="path26" fill="#231F20" fill-rule="nonzero"></path>
                                    </g>
                                    <g id="g28" transform="translate(174.666662, 131.999997)">
                                        <polygon id="path30" fill="#231F20" fill-rule="nonzero" points="13.3379863 0.94413331 19.5046528 33.4347992 30.1779859 33.4347992 31.6019725 40.902799 1.89797329 40.902799 0.41263999 33.4347992 10.9646397 33.4347992 4.80198655 0.94413331 13.337973 0.94413331"></polygon>
                                    </g>
                                    <g id="g32" transform="translate(213.333328, 131.999997)">
                                        <path d="M39.4178657,24.3603861 C39.4178657,30.2910526 37.4018791,34.2017191 34.1405458,36.8670524 C30.7605459,39.7723857 25.8365327,41.2003856 19.6165328,41.2003856 C15.6978663,41.2003856 11.965853,40.9043856 8.52186645,40.311039 L1.12186664,1.41503996 C3.13386659,1.06303997 7.28451982,0.644373317 12.0871997,0.644373317 C20.7405461,0.644373317 26.6071993,2.24703994 31.2352126,5.98303985 C36.1525324,9.95503975 39.4178657,16.5963863 39.4178657,24.3603727 M26.017866,12.2057064 C23.4098794,9.18435977 19.3165329,7.58170648 14.696533,7.58170648 C13.215213,7.58170648 11.9658664,7.64703981 10.9592131,7.75637314 L15.9978663,34.0843725 C16.8831996,34.2630391 18.1325329,34.3803725 19.6165328,34.3803725 C26.6711993,34.3803725 30.1685326,30.6443726 30.1685326,24.3030394 C30.1685326,19.5003595 28.7445193,15.2937063 26.0178527,12.2057064" id="path34" fill="#231F20" fill-rule="nonzero"></path>
                                    </g>
                                    <g id="g36" transform="translate(254.666660, 131.999997)">
                                        <path d="M30.8147992,18.6699995 C30.8147992,25.3113327 26.3081327,30.6459859 18.5387995,30.6459859 C8.22279979,30.6459859 1.22147997,22.3459994 1.22147997,12.3286664 C1.22147997,5.09666654 6.14546651,0.292666659 13.5001197,0.292666659 C23.5201327,0.292666659 30.8147992,8.0579998 30.8147992,18.6699995 M10.0601464,12.4473464 C10.0601464,16.9500129 12.490813,24.1220127 17.4147996,24.1220127 C20.7947995,24.1220127 21.9787995,21.2779995 21.9787995,18.6126795 C21.9787995,13.688693 19.3094662,6.8126665 14.7414796,6.8126665 C11.720133,6.8126665 10.0601464,9.06734644 10.0601464,12.4473464" id="path38" fill="#231F20" fill-rule="nonzero"></path>
                                    </g>
                                    <g id="g40" transform="translate(287.999993, 131.999997)">
                                        <path d="M5.12999987,29.9363993 C4.77265321,27.3284127 4.29801323,24.1843994 3.64867991,20.5083995 L0.0300133326,0.94305331 L8.26999979,0.94305331 L10.6433331,13.9857463 C11.6486797,19.7417462 14.7326663,23.7697461 17.6366796,23.7697461 C19.7140128,23.7697461 20.3633462,22.2244128 20.3633462,20.2124128 C20.3633462,19.2017462 20.1886795,18.0790662 20.0100128,16.8937462 L16.9873462,0.94305331 L25.231346,0.94305331 L27.6566793,14.1070796 C28.7886526,19.9723995 31.6286659,23.7697327 34.4726525,23.7697327 C36.4313458,23.7697327 37.3206791,22.3457461 37.3206791,20.3337328 C37.3206791,19.2017329 37.1499857,17.9603996 36.9099991,16.8337329 L34.0060258,0.94305331 L42.3019989,0.94305331 L45.4420122,17.8430662 C45.6846522,19.3203862 45.9206522,21.6363861 45.9206522,22.8203861 C45.9206522,27.7417326 43.3126656,30.6457192 38.865999,30.6457192 C35.0686791,30.6457192 31.4540125,28.8697193 28.8459859,25.1337194 C28.610026,27.680386 26.5940127,30.6457192 21.9659995,30.6457192 C18.2286795,30.6457192 14.675333,28.9870526 12.0059997,25.2550527 L11.8886664,25.2550527 L12.4193197,29.9363859 L5.12998654,29.9363859 L5.12999987,29.9363993 Z" id="path42" fill="#231F20" fill-rule="nonzero"></path>
                                    </g>
                                    <g id="g44" transform="translate(337.333325, 131.999997)">
                                        <path d="M0.978679976,12.328533 C0.978679976,5.09519987 5.89599985,0.292533326 13.2466663,0.292533326 C23.2706794,0.292533326 30.5600259,8.05654647 30.5600259,18.6698662 C30.5600259,25.313866 26.057346,30.6445326 18.2853729,30.6445326 C7.97201313,30.6445326 0.978679976,22.3445194 0.978679976,12.328533 M21.7253595,18.6125329 C21.7253595,13.691213 19.0560529,6.81521316 14.488013,6.81521316 C11.469373,6.81521316 9.80669309,9.06721311 9.80669309,12.4458664 C9.80669309,16.9485329 12.2400397,24.1218661 17.1573596,24.1218661 C20.5440395,24.1218661 21.7253595,21.2778661 21.7253595,18.6125329" id="path46" fill="#231F20" fill-rule="nonzero"></path>
                                    </g>
                                    <g id="g48" transform="translate(371.999991, 131.999997)">
                                        <path d="M24.6525461,0.94413331 C25.001866,3.55213324 25.480546,6.69213317 26.189906,10.3721331 L29.8658926,29.9374659 L21.3872128,29.9374659 L18.8432262,16.4774663 C17.7152129,10.7254664 14.7538663,7.22813315 11.849893,7.22813315 C9.70718642,7.22813315 8.94453311,8.70813312 8.94453311,10.5507997 C8.94453311,11.6134664 9.11921311,13.0414663 9.35387977,14.4001196 L12.3165197,29.9374659 L3.78054657,29.9374659 L0.701853316,13.7507863 C0.28318666,11.7347997 0.104519997,9.95478642 0.104519997,8.41613312 C0.104519997,2.90013326 2.89251993,0.290799993 7.57387981,0.290799993 C11.0711997,0.290799993 14.5711996,1.89745329 17.5365196,5.68679986 L17.6591996,5.62545319 L17.1231862,0.944119976 L24.6525194,0.944119976 L24.6525461,0.94413331 Z" id="path50" fill="#231F20" fill-rule="nonzero"></path>
                                    </g>
                                    <g id="g52" transform="translate(401.333323, 131.999997)">
                                        <path d="M10.9137331,6.57481317 C8.12706646,6.57481317 5.03905321,7.75881314 3.38439992,8.59079979 L1.30306663,2.60681327 C3.02307992,1.35747997 6.46306651,0.412146656 10.1430664,0.352146658 C17.8510796,0.290813326 23.4817327,3.9094799 23.4817327,10.5507997 C23.4817327,14.578813 20.1590662,16.8948129 16.9577196,18.4934662 C14.6457463,19.6214795 13.4617463,20.6268128 13.4617463,21.8121328 C13.4617463,23.4148127 14.941733,24.3601461 17.2590662,24.3601461 C19.7457195,24.3601461 21.8217328,23.6494794 23.0070661,23.1188128 L25.0843727,29.1627993 C23.6603861,29.9374793 20.9910661,30.6481459 17.6110662,30.6481459 C10.1430531,30.6481459 4.86570655,26.676146 4.86570655,20.6267995 C4.86570655,17.0081329 7.65237314,14.5787996 10.9750397,12.920133 C13.6403997,11.6134664 14.593733,10.6067997 14.593733,9.18278644 C14.593733,7.75879981 13.3430397,6.57479984 10.9137197,6.57479984" id="path54" fill="#231F20" fill-rule="nonzero"></path>
                                    </g>
                                    <g id="g56" transform="translate(410.666656, 165.333329)">
                                        <polygon id="path58" fill="#231F20" fill-rule="nonzero" points="8.45666646 4.42814656 8.33931979 4.42814656 5.97001318 9.11349311 0.456666655 9.11349311 4.89933321 0.100146664 10.7686797 0.100146664 18.0019995 9.11349311 11.9539864 9.11349311"></polygon>
                                    </g>
                                    <g id="g60" transform="translate(434.666656, 165.333329)">
                                        <path d="M4.55651989,0.217733328 C7.28718648,0.217733328 9.59517309,1.99906662 9.59517309,5.02041321 C9.59517309,7.57241314 7.81786647,9.22839977 5.26586654,9.22839977 C2.6618666,9.22839977 0.345866658,7.27239982 0.345866658,4.36841322 C0.345866658,1.88039995 2.06583995,0.217733328 4.43917322,0.217733328 L4.55651989,0.217733328 Z" id="path62" fill="#231F20" fill-rule="nonzero"></path>
                                    </g>
                                    <g id="g64" transform="translate(427.999989, 131.999997)">
                                        <polygon id="path66" fill="#231F20" fill-rule="nonzero" points="0.314653325 0.94413331 8.85066645 0.94413331 14.3626663 29.9374659 5.82799985 29.9374659"></polygon>
                                    </g>
                                    <g id="g68" transform="translate(443.999989, 131.999997)">
                                        <path d="M0.973186642,12.206813 C0.973186642,4.73881321 6.01586652,0.353479991 13.1878663,0.353479991 C16.6278529,0.353479991 19.5931862,1.00147997 21.4278528,1.89481329 L21.3665328,8.35749312 C19.8891995,7.75615981 18.1131995,7.16814649 15.6185329,7.16814649 C12.4785197,7.16814649 9.92651975,9.18415977 9.92651975,13.1601463 C9.92651975,18.6121462 13.7238397,23.7681594 19.7678662,23.7681594 C21.4878395,23.7681594 22.6731861,23.4721594 23.6825327,23.0588261 L25.8171727,29.6388259 C24.5145194,30.1134926 22.3771861,30.5881459 19.8891995,30.5881459 C8.86385311,30.5881459 0.973186642,22.5268261 0.973186642,12.206813" id="path70" fill="#231F20" fill-rule="nonzero"></path>
                                    </g>
                                    <g id="g72" transform="translate(469.333322, 131.999997)">
                                        <path d="M27.757346,21.8732128 C27.757346,27.2692127 23.5466661,30.5865459 17.6799729,30.5865459 C7.18534649,30.5865459 0.779986647,21.3985328 0.779986647,12.562533 C0.779986647,4.97319988 5.05199987,0.291866659 13.2946797,0.291866659 C16.5479729,0.291866659 20.7600128,0.883866645 24.1426661,2.6078666 L23.5466794,8.77053311 C21.2386528,7.64653314 18.5653195,6.93186649 15.4293329,6.93186649 C12.9333197,6.93186649 10.9786931,7.70651981 9.85067975,9.18386644 C9.25867977,10.0158531 8.96265311,11.3172131 8.90533311,12.1491997 C20.5853462,11.8531997 27.757346,14.522533 27.757346,21.8731995 M16.6093596,24.3598794 C18.5653329,24.3598794 19.7533595,23.3545327 19.7533595,21.9305328 C19.7533595,19.2038662 16.4346796,18.3158662 9.73733309,18.3758662 C10.3293331,21.0412128 12.6373597,24.3598794 16.6093596,24.3598794" id="path74" fill="#231F20" fill-rule="nonzero"></path>
                                    </g>
                                    <g id="g76" transform="translate(507.999987, 131.999997)">
                                        <path d="M16.7779996,24.3603861 C19.2686795,24.3603861 21.3419995,23.6510527 22.5299994,23.1190528 L24.6033194,29.1630526 C23.1793328,29.9337059 20.5139995,30.6443726 17.1393329,30.6443726 C9.66598643,30.6443726 4.38867989,26.6763727 4.38867989,20.6283862 C4.38867989,17.0097196 7.17933315,14.579053 10.4899997,12.920373 C13.163333,11.6137064 14.1126796,10.6083864 14.1126796,9.1843731 C14.1126796,7.75637314 12.863333,6.57503984 10.4366531,6.57503984 C7.64998648,6.57503984 4.56734655,7.75637314 2.90735993,8.59237312 L0.831346646,2.6083866 C2.54733327,1.3590533 5.99134652,0.41371999 9.66598643,0.352386658 C17.3780262,0.291039993 23.0086794,3.90570657 23.0086794,10.5510531 C23.0086794,14.579053 19.6873462,16.8963729 16.4860129,18.4897062 C14.1739996,19.6217062 12.988653,20.6283728 12.988653,21.8123728 C12.988653,23.4110261 14.4659863,24.3603727 16.7779996,24.3603727" id="path78" fill="#231F20" fill-rule="nonzero"></path>
                                    </g>
                                    <g id="g80" transform="translate(533.333320, 131.999997)">
                                        <path d="M11.5466797,6.22186651 C11.5466797,9.2445331 9.53067976,11.3165331 6.62531983,11.3165331 C3.24665325,11.3165331 0.877319978,8.52986645 0.877319978,5.2725332 C0.877319978,2.42853327 2.77201326,0.351213325 5.61601319,0.351213325 C9.12134644,0.351213325 11.5466797,2.78187993 11.5466797,6.22187984" id="path82" fill="#231F20" fill-rule="nonzero"></path>
                                    </g>
                                    <g id="g84" transform="translate(549.333320, 131.999997)">
                                        <path d="M4.73881321,29.9363993 C4.44283989,27.4497193 4.0894799,22.5857328 3.25749325,18.1964129 L-0.00385333324,0.943066643 L8.53215979,0.943066643 L10.5481464,11.7337197 C11.6188264,17.4297196 14.1668396,22.2897328 19.6188262,22.2897328 C20.0934795,22.2897328 20.5681728,22.2897328 20.9854795,22.2243994 L22.6414794,30.5283992 C22.1094528,30.5897459 21.5748261,30.5897459 21.0427995,30.5897459 C17.0707996,30.5897459 13.866813,27.8590793 11.793453,24.0097327 L11.618813,24.0097327 C11.8508264,26.025746 11.9721197,27.9804126 12.1507997,29.9364126 L4.73881321,29.9364126 L4.73881321,29.9363993 Z" id="path86" fill="#231F20" fill-rule="nonzero"></path>
                                    </g>
                                    <g id="g88" transform="translate(567.999986, 131.999997)">
                                        <path d="M5.87601319,0.352666658 C9.37735977,0.352666658 11.802693,2.78199993 11.802693,6.22334651 C11.802693,9.24066644 9.78670642,11.3180131 6.88667983,11.3180131 C3.50667991,11.3180131 1.13334664,8.53133312 1.13334664,5.2740132 C1.13334664,2.42601327 3.02803992,0.352666658 5.87602652,0.352666658" id="path90" fill="#231F20" fill-rule="nonzero"></path>
                                    </g>
                                    <g id="g92" transform="translate(583.999985, 131.999997)">
                                        <path d="M30.8462659,18.6699995 C30.8462659,25.3113327 26.3395993,30.6459859 18.5742529,30.6459859 C8.25825313,30.6459859 1.2609333,22.3459994 1.2609333,12.3286664 C1.2609333,5.09666654 6.17690651,0.292666659 13.5315997,0.292666659 C23.5515727,0.292666659 30.8462659,8.0579998 30.8462659,18.6699995 M10.0915597,12.4473464 C10.0915597,16.9500129 12.5222397,24.1220127 17.4422396,24.1220127 C20.8262261,24.1220127 22.0102261,21.2779995 22.0102261,18.6126795 C22.0102261,13.688693 19.3409195,6.8126665 14.7729196,6.8126665 C11.7515597,6.8126665 10.0915597,9.06734644 10.0915597,12.4473464" id="path94" fill="#231F20" fill-rule="nonzero"></path>
                                    </g>
                                    <g id="g96" transform="translate(615.999985, 131.999997)">
                                        <path d="M11.5341464,6.22186651 C11.5341464,9.2445331 9.51814643,11.3165331 6.6127865,11.3165331 C3.23411992,11.3165331 0.864786645,8.52986645 0.864786645,5.2725332 C0.864786645,2.42853327 2.75947993,0.351213325 5.60746653,0.351213325 C9.10347977,0.351213325 11.5341464,2.78187993 11.5341464,6.22187984" id="path98" fill="#231F20" fill-rule="nonzero"></path>
                                    </g>
                                    <g id="g100" transform="translate(37.333332, 39.999999)">
                                        <path d="M17.3261329,21.4378661 C15.3701329,17.2871996 13.4687997,13.016533 11.9874664,9.10186644 L11.870133,9.10186644 C11.634133,13.2511997 11.334133,17.1098662 10.9207997,21.3765328 L9.14346644,40.4071857 L0.312799992,40.4071857 L5.2941332,0.444519989 L15.1887996,0.444519989 L35.8207991,40.4071857 L26.283466,40.4071857 L17.3261329,21.4378528 L17.3261329,21.4378661 Z" id="path102" fill="#231F20" fill-rule="nonzero"></path>
                                    </g>
                                    <g id="g104" transform="translate(67.999998, 39.999999)">
                                        <polygon id="path106" fill="#231F20" fill-rule="nonzero" points="14.705733 29.4405326 6.16573318 29.4405326 0.653733317 0.447199989 9.19239977 0.447199989"></polygon>
                                    </g>
                                    <g id="g108" transform="translate(74.666665, 71.999998)">
                                        <path d="M9.93721308,5.85839985 C9.93721308,8.40639979 8.15186646,10.0690664 5.60519986,10.0690664 C2.99586659,10.0690664 0.687866649,8.11041313 0.687866649,5.20507987 C0.687866649,2.71441327 2.40386661,1.05574664 4.77719988,1.05574664 L4.89454654,1.05574664 C7.62521314,1.05574664 9.93721308,2.8357466 9.93721308,5.85841319" id="path110" fill="#231F20" fill-rule="nonzero"></path>
                                    </g>
                                    <g id="g112" transform="translate(83.999998, 38.666666)">
                                        <path d="M23.3751994,30.7738659 C22.1258661,31.2485326 20.5805328,31.4831992 19.3951995,31.4831992 C8.42986646,31.4831992 1.1405333,22.1778661 1.1405333,12.096533 C1.1405333,5.04186654 5.1685332,1.12719997 10.0818664,1.12719997 C13.5218663,1.12719997 17.0831996,2.61253327 19.6351995,6.46586651 L19.7565328,6.46586651 L19.3351995,1.78053329 L27.1605327,1.78053329 C27.285866,5.2205332 27.8138793,9.36987977 28.5311993,13.0458797 L34.3978658,43.8725456 L25.9151994,43.8725456 L23.3751994,30.7738792 L23.3751994,30.7738659 Z M20.6365328,16.1858663 C19.5125328,10.6165331 16.4911996,8.0071998 14.000533,8.0071998 C11.5698664,8.0071998 10.0285331,9.96319975 10.0285331,13.4591997 C10.0285331,19.0338662 13.6471997,24.9645327 18.8071995,24.9645327 C20.1698662,24.9645327 21.4725328,24.5471994 22.1818794,23.9538661 L20.6365462,16.1858663 L20.6365328,16.1858663 Z" id="path114" fill="#231F20" fill-rule="nonzero"></path>
                                    </g>
                                    <g id="g116" transform="translate(117.333330, 38.666666)">
                                        <path d="M18.0217329,31.4250659 C7.53106648,31.4250659 1.12573331,22.2370661 1.12573331,13.4010663 C1.12573331,5.81439985 5.39771987,1.12906664 13.6323997,1.12906664 C16.8977329,1.12906664 21.1043995,1.72106662 24.4843994,3.44106658 L23.8923994,9.60373309 C21.5790661,8.47973312 18.9097329,7.77039981 15.7657329,7.77039981 C13.2790663,7.77039981 11.3243997,8.54106645 10.1963997,10.0263997 C9.60439976,10.8530664 9.30839977,12.155733 9.24706644,12.987733 C20.9257328,12.6903997 28.099066,15.3597463 28.099066,22.7117328 C28.099066,28.1064126 23.8923994,31.4250659 18.0217329,31.4250659 M10.0790664,19.2103995 C10.6710664,21.8797461 12.9830663,25.2023994 16.9550662,25.2023994 C18.9097329,25.2023994 20.0990662,24.1917327 20.0990662,22.7717328 C20.0990662,20.0423995 16.7763996,19.1530662 10.0790664,19.2103862" id="path118" fill="#231F20" fill-rule="nonzero"></path>
                                    </g>
                                    <g id="g120" transform="translate(147.999996, 38.666666)">
                                        <path d="M17.8321329,31.4858659 C7.51613315,31.4858659 0.521466654,23.1858661 0.521466654,13.1658663 C0.521466654,5.93253319 5.43879986,1.12986664 12.7894663,1.12986664 C22.8054528,1.12986664 30.1041192,8.89386644 30.1041192,19.5058662 C30.1041192,26.1471993 25.5961194,31.4858659 17.8321329,31.4858659 M14.0387996,7.64853314 C11.0121331,7.64853314 9.35347977,9.90453309 9.35347977,13.2831997 C9.35347977,17.7898662 11.7841464,24.9631994 16.7041462,24.9631994 C20.0801462,24.9631994 21.2681328,22.1151994 21.2681328,19.4498662 C21.2681328,14.524533 18.5987995,7.64853314 14.0387996,7.64853314" id="path122" fill="#231F20" fill-rule="nonzero"></path>
                                    </g>
                                    <g id="g124" transform="translate(179.999996, 39.999999)">
                                        <polygon id="path126" fill="#231F20" fill-rule="nonzero" points="0.65226665 0.445866656 9.19226644 0.445866656 14.7042663 29.4391993 6.16959985 29.4391993"></polygon>
                                    </g>
                                    <g id="g128" transform="translate(186.666662, 71.999998)">
                                        <path d="M5.60986653,10.0687997 C3.00586659,10.0687997 0.688546649,8.1087998 0.688546649,5.20879987 C0.688546649,2.71813327 2.40453327,1.05413331 4.77787988,1.05413331 L4.89653321,1.05413331 C7.62586648,1.05413331 9.93386642,2.8354666 9.93386642,5.85813319 C9.93386642,8.40613312 8.15786646,10.0687997 5.60986653,10.0687997" id="path130" fill="#231F20" fill-rule="nonzero"></path>
                                    </g>
                                    <g id="g132" transform="translate(195.999995, 39.999999)">
                                        <path d="M22.8371994,30.0917459 C18.9798529,30.0917459 15.4251863,28.3717326 12.6998663,24.6357327 L12.5771864,24.6357327 L13.1171997,29.4423993 L5.58786653,29.4423993 C5.16651987,26.8303993 4.75585321,23.6903994 3.9851999,20.0143995 L0.302519992,0.445066656 L8.84119978,0.445066656 L11.2758531,13.3130663 C12.459853,19.7143995 15.7211863,23.2117328 18.5131995,23.2117328 C20.7038528,23.2117328 21.4171861,21.7917461 21.4171861,19.7144128 C21.4171861,18.6517462 21.2958528,17.5197462 21.1211861,16.5144129 L18.0305329,0.445066656 L26.6305327,0.445066656 L29.8345326,17.2890796 C30.0705326,18.7090662 30.3051992,20.8464128 30.3051992,22.1490794 C30.3051992,27.187746 27.5798793,30.0917459 22.8371994,30.0917459" id="path134" fill="#231F20" fill-rule="nonzero"></path>
                                    </g>
                                    <g id="g136" transform="translate(227.999994, 38.666666)">
                                        <path d="M16.3918663,19.3298662 C14.0798796,20.4578662 12.894533,21.4631995 12.894533,22.6485328 C12.894533,24.2511994 14.3758796,25.2005327 16.6918796,25.2005327 C19.1785329,25.2005327 21.2558661,24.4858661 22.4398661,23.9551994 L24.5132127,30.0031992 C23.0891994,30.7738659 20.4238795,31.4885459 17.0452129,31.4885459 C9.57721309,31.4885459 4.29854656,27.512546 4.29854656,21.4632128 C4.29854656,17.8445462 7.08521316,15.4192129 10.4038664,13.7605463 C13.0731997,12.449893 14.022533,11.443213 14.022533,10.0232131 C14.022533,8.59921312 12.7771863,7.41121315 10.3478531,7.41121315 C7.55986648,7.41121315 4.47319989,8.59921312 2.81851993,9.4312131 L0.741186648,3.43921325 C2.45718661,2.19387995 5.89718652,1.24854664 9.57719976,1.18854664 C17.2798529,1.12721331 22.9145194,4.74187988 22.9145194,11.387213 C22.9145194,15.4192129 19.5931862,17.7312129 16.3918529,19.3298795" id="path138" fill="#231F20" fill-rule="nonzero"></path>
                                    </g>
                                    <g id="g140" transform="translate(251.999994, 27.999999)">
                                        <path d="M23.8726661,42.0917456 C20.3753328,42.0917456 16.9393329,40.3717323 14.5659996,37.2277324 L14.4446663,37.2277324 L14.980653,41.6784123 L7.32865315,41.6784123 C6.98065316,38.713079 6.32733318,33.6704125 5.67398652,30.2344126 L0.0433333322,0.709079982 L8.57931979,0.709079982 L10.8873197,12.9810797 L11.0699731,12.9810797 C12.0753197,12.3877464 14.0913196,11.7957464 16.4046529,11.7957464 C26.5379727,11.7957464 33.2433192,21.0450795 33.2433192,31.0650792 C33.2433192,37.0530791 30.1566526,42.0917456 23.8726527,42.0917456 M16.1686529,18.2583995 C14.444653,18.2583995 13.2033197,18.7904129 12.2499864,19.6210795 L13.3206397,25.9010794 C14.3833063,31.5970792 17.3499729,35.1543991 20.5539728,35.1543991 C23.2846394,35.1543991 24.2899727,32.7250658 24.2899727,30.4117326 C24.2899727,24.721066 20.7326395,18.2583995 16.1686396,18.2583995" id="path142" fill="#231F20" fill-rule="nonzero"></path>
                                    </g>
                                    <g id="g144" transform="translate(287.999993, 38.666666)">
                                        <path d="M17.8178662,31.4250659 C7.32319982,31.4250659 0.921866644,22.2370661 0.921866644,13.4010663 C0.921866644,5.81439985 5.1885332,1.12906664 13.4285197,1.12906664 C16.6898662,1.12906664 20.9005195,1.72106662 24.2805327,3.44106658 L23.6885327,9.60373309 C21.3711861,8.47973312 18.7058662,7.77039981 15.5618663,7.77039981 C13.0751863,7.77039981 11.1205464,8.54106645 9.99253308,10.0263997 C9.4005331,10.8530664 9.10054644,12.155733 9.03919977,12.987733 C20.7218528,12.6903997 27.8951993,15.3597463 27.8951993,22.7117328 C27.8951993,28.1064126 23.6885327,31.4250659 17.8178662,31.4250659 M9.87117309,19.2103995 C10.4631864,21.8797461 12.7751997,25.2023994 16.7511862,25.2023994 C18.7058529,25.2023994 19.8951862,24.1917327 19.8951862,22.7717328 C19.8951862,20.0423995 16.5685196,19.1530662 9.87117309,19.2103862" id="path146" fill="#231F20" fill-rule="nonzero"></path>
                                    </g>
                                    <g id="g148" transform="translate(317.333325, 39.999999)">
                                        <path d="M32.7725725,29.4405326 L22.2205461,29.4405326 L14.813893,20.6045328 C13.9778797,19.5951995 13.0885463,18.4711995 12.200573,17.3431996 L12.0832264,17.3431996 L16.8818929,42.5391989 L8.40723979,42.5391989 L0.403213323,0.447199989 L8.87790644,0.447199989 L10.6592397,9.75653309 L13.860573,12.836533 L18.9592529,0.447199989 L28.5085726,0.447199989 L20.4405862,17.4605329 L32.7725725,29.4405326 L32.7725725,29.4405326 Z" id="path150" fill="#231F20" fill-rule="nonzero"></path>
                                    </g>
                                    <g id="g152" transform="translate(347.999991, 38.666666)">
                                        <path d="M0.687186649,13.0442663 C0.687186649,5.57626653 5.72187986,1.1869333 12.8978663,1.1869333 C16.3418796,1.1869333 19.3032262,1.83893329 21.1418795,2.7322666 L21.0845461,9.1909331 C19.5952128,8.59759979 17.8191996,8.0095998 15.3325463,8.0095998 C12.1885464,8.0095998 9.63654643,10.0255997 9.63654643,13.9935997 C9.63654643,19.4495995 13.4338663,24.6055994 19.4818795,24.6055994 C21.1978661,24.6055994 22.3871994,24.3095994 23.3925194,23.8962661 L25.5271994,30.4762659 C24.2205194,30.9509326 22.0911994,31.4256125 19.5951862,31.4256125 C8.56983979,31.4256125 0.687186649,23.3602794 0.687186649,13.0442797" id="path154" fill="#231F20" fill-rule="nonzero"></path>
                                    </g>
                                    <g id="g156" transform="translate(373.333324, 38.666666)">
                                        <path d="M17.3878529,31.4250659 C6.89318649,31.4250659 0.495839988,22.2370661 0.495839988,13.4010663 C0.495839988,5.81439985 4.76386655,1.12906664 13.0025063,1.12906664 C16.2638529,1.12906664 20.4745062,1.72106662 23.8504927,3.44106658 L23.2585328,9.60373309 C20.9451728,8.47973312 18.2798529,7.77039981 15.135853,7.77039981 C12.645173,7.77039981 10.6905064,8.54106645 9.56651976,10.0263997 C8.97451978,10.8530664 8.67450645,12.155733 8.61318645,12.987733 C20.2918528,12.6903997 27.4651993,15.3597463 27.4651993,22.7117328 C27.4651993,28.1064126 23.2585328,31.4250659 17.3878529,31.4250659 M9.44518643,19.2103995 C10.0371864,21.8797461 12.345173,25.2023994 16.3251863,25.2023994 C18.2798529,25.2023994 19.4651995,24.1917327 19.4651995,22.7717328 C19.4651995,20.0423995 16.1384929,19.1530662 9.44518643,19.2103862" id="path158" fill="#231F20" fill-rule="nonzero"></path>
                                    </g>
                                    <g id="g160" transform="translate(413.333323, 39.999999)">
                                        <path d="M32.5868125,29.4405326 L22.0347861,29.4405326 L14.6241063,20.6045328 C13.7961463,19.5951995 12.9027863,18.4711995 12.0187997,17.3431996 L11.8974664,17.3431996 L16.7001196,42.5391989 L8.22147979,42.5391989 L0.217453328,0.447199989 L8.69613312,0.447199989 L10.4734797,9.75653309 L13.674813,12.836533 L18.7734929,0.447199989 L28.318826,0.447199989 L20.2588128,17.4605329 L32.5868125,29.4405326 L32.5868125,29.4405326 Z" id="path162" fill="#231F20" fill-rule="nonzero"></path>
                                    </g>
                                    <g id="g164" transform="translate(443.999989, 38.666666)">
                                        <path d="M0.0885333311,11.2082664 C0.0885333311,5.16426654 3.64189324,1.12693331 8.86319978,1.12693331 C12.2378797,1.12693331 15.9792129,2.72959993 18.6445329,7.52826648 L18.7618795,7.52826648 C18.6445329,5.45626653 18.4658529,3.50026658 18.4045329,1.78026662 L26.2298527,1.78026662 C26.112546,5.3989332 26.7085327,11.0909331 27.419186,14.822933 L30.4405459,30.0029192 C28.011186,30.7735859 24.3312127,31.4269192 20.8391861,31.4269192 C6.60721317,31.4269192 0.0885333311,20.9895861 0.0885333311,11.2082531 M19.5325462,18.0282529 C18.1698795,10.9122531 15.0298663,8.0069198 12.477853,8.0069198 C10.1045197,8.0069198 8.98053311,9.96291975 8.98053311,12.8109197 C8.98053311,18.2015862 13.013853,24.9642527 18.5218795,24.9642527 C19.4151862,24.9642527 20.1858662,24.8429194 20.8391861,24.725586 L19.5325462,18.0282662 L19.5325462,18.0282529 Z" id="path166" fill="#231F20" fill-rule="nonzero"></path>
                                    </g>
                                    <g id="g168" transform="translate(475.999988, 39.999999)">
                                        <path d="M22.9895861,30.0917459 C19.1322395,30.0917459 15.5775996,28.3717326 12.8482663,24.6357327 L12.7255863,24.6357327 L13.2655863,29.4423993 L5.73625319,29.4423993 C5.32291987,26.8303993 4.90027988,23.6903994 4.13358656,20.0143995 L0.462933322,0.445066656 L8.99357311,0.445066656 L11.4242397,13.3130663 C12.6082397,19.7143995 15.8735863,23.2117328 18.6575995,23.2117328 C20.8522661,23.2117328 21.5615728,21.7917461 21.5615728,19.7144128 C21.5615728,18.6517462 21.4482528,17.5197462 21.2655995,16.5144129 L18.1829195,0.445066656 L26.7829327,0.445066656 L29.9789326,17.2890796 C30.2189192,18.7090662 30.4535859,20.8464128 30.4535859,22.1490794 C30.4535859,27.187746 27.732266,30.0917459 22.9895994,30.0917459" id="path170" fill="#231F20" fill-rule="nonzero"></path>
                                    </g>
                                    <g id="g172" transform="translate(509.333321, 38.666666)">
                                        <path d="M1.2753333,11.2082664 C1.2753333,5.16426654 4.83267988,1.12693331 10.0499997,1.12693331 C13.4246797,1.12693331 17.1660129,2.72959993 19.8313328,7.52826648 L19.9526662,7.52826648 C19.8313328,5.45626653 19.6566928,3.50026658 19.5953195,1.78026662 L27.4206793,1.78026662 C27.3033327,5.3989332 27.8953326,11.0909331 28.605986,14.822933 L31.6366659,30.0029192 C29.2020126,30.7735859 25.525986,31.4269192 22.0259861,31.4269192 C7.79799981,31.4269192 1.2753333,20.9895861 1.2753333,11.2082531 M20.7233328,18.0282529 C19.3566795,10.9122531 16.2166663,8.0069198 13.664653,8.0069198 C11.2953464,8.0069198 10.1673331,9.96291975 10.1673331,12.8109197 C10.1673331,18.2015862 14.200653,24.9642527 19.7166528,24.9642527 C20.6019862,24.9642527 21.3726528,24.8429194 22.0259728,24.725586 L20.7233195,18.0282662 L20.7233328,18.0282529 Z" id="path174" fill="#231F20" fill-rule="nonzero"></path>
                                    </g>
                                    <g id="g176" transform="translate(542.666653, 39.999999)">
                                        <polygon id="path178" fill="#231F20" fill-rule="nonzero" points="8.13785313 42.5410656 0.080519998 0.443733322 8.61250645 0.443733322 16.6778529 42.5410656 8.13785313 42.5410656"></polygon>
                                    </g>
                                    <g id="g180" transform="translate(563.999986, 71.999998)">
                                        <path d="M5.3665332,1.05399997 C8.09321313,1.05399997 10.4051864,2.83533326 10.4051864,5.85666652 C10.4051864,8.40866646 8.62787978,10.0686664 6.07587985,10.0686664 C3.46785325,10.0686664 1.15986664,8.10866646 1.15986664,5.20866654 C1.15986664,2.7166666 2.87186659,1.05399997 5.24918654,1.05399997 L5.3665332,1.05399997 L5.3665332,1.05399997 Z" id="path182" fill="#231F20" fill-rule="nonzero"></path>
                                    </g>
                                    <g id="g184" transform="translate(557.333319, 39.999999)">
                                        <polygon id="path186" fill="#231F20" fill-rule="nonzero" points="6.63321317 29.4405326 1.12389331 0.447199989 9.65986643 0.447199989 15.173213 29.4405326 6.63321317 29.4405326"></polygon>
                                    </g>
                                    <g id="g188" transform="translate(570.666652, 39.999999)">
                                        <path d="M6.28841318,22.5014661 L18.6777329,22.5014661 L18.6164129,22.3841328 C15.8337329,20.0147995 13.996413,18.2334662 11.5617197,15.6867996 L2.13374661,5.60546653 L1.18839997,0.445466656 L25.2617594,0.445466656 L26.6203993,7.38546648 L12.9857597,7.38546648 L13.0470797,7.50013315 C15.6590929,9.63746643 17.4977596,11.4747997 20.1017328,14.2014663 L29.2897593,24.0427994 L30.3004259,29.4427993 L7.65507981,29.4427993 L6.28842651,22.5014661 L6.28841318,22.5014661 Z" id="path190" fill="#231F20" fill-rule="nonzero"></path>
                                    </g>
                                    <g id="g192" transform="translate(601.333318, 38.666666)">
                                        <path d="M0.229599994,11.2082664 C0.229599994,5.16426654 3.78295991,1.12693331 9.00426644,1.12693331 C12.382933,1.12693331 16.1162796,2.72959993 18.7855995,7.52826648 L18.9029462,7.52826648 C18.7855995,5.45626653 18.6069195,3.50026658 18.5455995,1.78026662 L26.374946,1.78026662 C26.249586,5.3989332 26.8495993,11.0909331 27.5602526,14.822933 L30.5816126,30.0029192 C28.1522526,30.7735859 24.4802527,31.4269192 20.9802528,31.4269192 C6.74827983,31.4269192 0.229599994,20.9895861 0.229599994,11.2082531 M19.6775995,18.0282529 C18.3109462,10.9122531 15.166933,8.0069198 12.6229464,8.0069198 C10.2496131,8.0069198 9.12159977,9.96291975 9.12159977,12.8109197 C9.12159977,18.2015862 13.1549197,24.9642527 18.6629462,24.9642527 C19.5602395,24.9642527 20.3269328,24.8429194 20.9802528,24.725586 L19.6775995,18.0282662 L19.6775995,18.0282529 Z" id="path194" fill="#231F20" fill-rule="nonzero"></path>
                                    </g>
                                    <g id="g196" transform="translate(633.333318, 38.666666)">
                                        <path d="M1.31318663,13.0442663 C1.31318663,5.57626653 6.35586651,1.1869333 13.5278663,1.1869333 C16.9638662,1.1869333 19.9291862,1.83893329 21.7678528,2.7322666 L21.7065328,9.1909331 C20.2251728,8.59759979 18.4491729,8.0095998 15.9585329,8.0095998 C12.814533,8.0095998 10.2625331,10.0255997 10.2625331,13.9935997 C10.2625331,19.4495995 14.059853,24.6055994 20.1078662,24.6055994 C21.8278395,24.6055994 23.0131861,24.3095994 24.0225327,23.8962661 L26.153146,30.4762659 C24.846506,30.9509326 22.7118661,31.4256125 20.2251728,31.4256125 C9.19986644,31.4256125 1.31318663,23.3602794 1.31318663,13.0442797" id="path198" fill="#231F20" fill-rule="nonzero"></path>
                                    </g>
                                    <g id="g200" transform="translate(658.666650, 38.666666)">
                                        <path d="M18.0182262,31.4250659 C7.51953315,31.4250659 1.11823997,22.2370661 1.11823997,13.4010663 C1.11823997,5.81439985 5.38491987,1.12906664 13.6289063,1.12906664 C16.8902129,1.12906664 21.1009061,1.72106662 24.4808794,3.44106658 L23.8849327,9.60373309 C21.5756128,8.47973312 18.9062529,7.77039981 15.7661996,7.77039981 C13.2755597,7.77039981 11.3208931,8.54106645 10.1849064,10.0263997 C9.59693309,10.8530664 9.30494643,12.155733 9.24358644,12.987733 C20.9222128,12.6903997 28.0915726,15.3597463 28.0915726,22.7117328 C28.0915726,28.1064126 23.8849461,31.4250659 18.0182529,31.4250659 M10.0715597,19.2103995 C10.6675864,21.8797461 12.975613,25.2023994 16.9476129,25.2023994 C18.9062662,25.2023994 20.0875862,24.1917327 20.0875862,22.7717328 C20.0875862,20.0423995 16.7728929,19.1530662 10.0715597,19.2103862" id="path202" fill="#231F20" fill-rule="nonzero"></path>
                                    </g>
                                    <g id="g204">
                                        <path d="M717.920875,234.909994 C708.715556,256.389994 693.632876,274.073993 675.45017,284.70998 C618.164851,318.211339 562.531559,317.420645 548.68488,316.620645 C547.532866,319.805992 545.01024,321.895339 542.563546,322.670005 C539.472893,323.639325 536.7062,321.903325 536.7062,321.903325 C536.7062,321.903325 533.52488,323.659352 531.77688,324.628672 C530.032867,325.590019 529.915547,324.990005 529.915547,324.990005 C529.915547,324.990005 529.516867,325.103325 528.940853,325.355325 C528.376853,325.615339 527.752867,325.339339 527.752867,325.339339 C527.752867,325.339339 518.912907,323.144672 517.81024,322.994005 C516.710187,322.848699 516.028867,322.276685 516.028867,322.276685 L509.619521,322.499379 C509.619521,322.499379 509.570201,323.310005 508.787534,324.560699 C508.207534,325.510045 506.312881,326.398019 506.312881,326.398019 L502.463521,328.491365 C502.463521,328.491365 502.328881,331.014032 501.736881,333.038032 C500.008854,338.843365 495.484881,341.516711 495.484881,341.516711 C492.495548,342.900698 490.447574,342.368685 490.447574,342.368685 L480.102241,340.386018 C480.102241,340.386018 473.692855,344.052685 471.595522,345.196685 C469.490215,346.336698 469.218242,346.118031 468.272895,346.174564 C467.311548,346.227365 448.694202,342.356671 448.694202,342.356671 C448.694202,342.356671 448.419549,342.519351 447.546215,343.059351 C446.686229,343.590031 445.388869,343.444685 445.388869,343.444685 C445.388869,343.444685 289.986246,313.496685 285.171553,312.543366 C280.35958,311.595366 280.1449,305.679352 280.1449,305.679352 C280.1449,305.679352 276.19422,303.107352 275.73958,299.286019 C274.136873,299.335353 270.907553,299.067353 269.674233,293.448699 C268.82222,289.558033 273.630246,287.404699 273.630246,287.404699 L273.568886,287.067353 L273.5369,286.719353 C268.1409,288.203366 261.584873,286.62202 261.584873,286.62202 C257.634234,285.9887 242.072914,283.79402 242.072914,283.79402 C231.278234,281.887366 190.567542,273.186033 190.567542,273.186033 C182.884889,271.1007 183.615555,270.678033 183.615555,270.678033 C183.615555,270.678033 178.994222,268.974033 176.292889,268.07002 C173.598222,267.164687 174.090249,266.67402 174.090249,266.67402 L173.270222,260.268687 C173.594236,260.31802 173.802249,260.31802 173.826209,260.31802 L175.558222,260.288687 L174.267569,259.132687 C174.259556,259.124687 173.347569,258.2607 173.395542,257.144687 C173.432902,256.370034 173.939569,255.603367 174.896889,254.868687 C177.095582,253.198034 190.084875,242.386021 191.415569,241.055354 C191.496902,240.975354 191.590249,240.886021 191.675582,240.792701 C192.438235,240.018021 193.472902,238.958021 195.460902,238.594034 C196.884888,238.346034 198.620902,238.488714 200.624928,239.015354 C207.087568,240.719354 245.038261,249.6407 245.415581,249.7207 L245.759581,249.802034 L246.015607,249.575354 C246.150247,249.45802 249.252914,246.703367 249.08226,241.623367 C249.058247,240.856701 249.08226,239.891367 249.107607,238.788687 C249.240914,233.112688 249.463607,223.611354 243.322247,217.714021 C236.170274,210.840688 233.586247,210.171355 223.256941,206.991368 C216.044901,204.768688 205.472928,202.103368 204.807595,201.900688 C204.559595,201.799355 203.574235,201.466035 201.967595,201.754022 C199.768902,202.143368 197.411608,203.482035 194.970235,205.738035 C186.446275,213.603368 178.636902,220.824701 176.763569,222.707354 C176.503596,222.967368 176.150249,223.295368 175.744929,223.672701 C175.375582,224.010021 174.954236,224.403354 174.499569,224.832701 C173.927582,224.610021 173.107596,224.326034 172.284929,224.131368 C170.779596,223.762048 170.738262,221.924701 170.738262,221.924701 C170.738262,221.924701 170.356916,217.340701 170.296942,214.574035 C170.251569,212.330035 170.454249,212.236688 170.454249,212.236688 L188.920929,194.894035 C190.434275,193.007355 192.283595,193.702022 192.283595,193.702022 C192.283595,193.702022 204.227608,194.838035 218.470235,198.687368 C234.056901,202.902035 283.05426,218.119355 283.05426,218.119355 L282.915593,218.975355 L285.914246,240.967354 C291.520939,241.035341 292.968939,244.135367 294.043606,250.20734 C295.086246,256.08602 292.960926,261.611353 289.086246,264.264687 L289.467593,267.051353 C294.724913,264.09402 297.715593,257.043354 296.375593,249.551354 C295.588926,245.055341 294.631579,241.907354 292.299579,240.062021 C291.414246,239.356701 290.347593,238.864701 289.050233,238.590021 L301.435566,228.832701 C301.435566,228.832701 302.583592,229.247368 305.642232,230.006034 C308.696926,230.768688 315.354272,233.060701 315.354272,233.060701 C315.354272,233.060701 324.772939,225.802034 330.810245,220.963354 C330.691592,222.143368 330.627592,223.360688 330.615578,224.598034 C330.510232,235.279354 334.278258,246.8047 341.227591,257.031367 C346.886245,265.368687 354.107591,272.05802 362.099578,276.382033 C365.974258,278.471366 369.900884,279.931366 373.791591,280.723366 C377.762257,281.530033 381.60491,281.61538 385.182217,280.97802 C388.622244,280.36602 391.774217,279.096686 394.570243,277.20202 C398.294243,274.666033 401.190243,271.1727 403.174243,266.808687 C405.060883,262.64202 406.050217,257.867367 406.099577,252.61402 C406.171563,245.818021 404.667563,238.687367 401.778243,231.766021 C414.276896,235.539354 426.934243,239.482021 437.530242,242.622021 C444.735562,244.751354 453.319589,247.275367 461.911548,249.81402 C460.876922,253.22202 460.475588,257.011367 460.702242,261.104687 C461.214242,270.195367 464.868908,280.328686 470.986255,289.659353 C475.782228,296.974033 481.786268,302.856672 488.350228,306.682032 C494.896894,310.507352 501.444907,311.971339 507.278241,310.934032 C510.239587,310.410019 512.920894,309.246046 515.26624,307.476672 C521.13156,303.031366 524.243574,295.278019 524.024907,285.635366 C524.024907,285.371353 524.016934,285.116686 524.000894,284.852686 C525.35156,288.028686 526.81156,293.506033 526.81156,293.506033 C526.81156,293.506033 527.298253,294.264699 527.95556,294.536686 C528.62088,294.799366 534.450227,296.487353 537.156893,297.011353 C539.862213,297.526019 539.558213,298.195353 539.558213,298.195353 C539.558213,298.195353 540.110213,298.483339 540.6942,299.222019 C541.294213,299.959339 541.606226,301.712686 541.812893,302.020686 C542.024893,302.324686 542.198226,303.530006 542.198226,303.530006 C542.198226,303.530006 542.332866,303.655326 545.160866,304.650019 C547.492853,305.472672 549.050186,307.984672 549.306213,311.518006 C561.472879,312.162006 616.956851,312.982032 672.85821,280.284686 C708.192849,259.61934 728.699515,212.894021 720.566222,171.596676 C716.707582,152.00201 702.744849,118.071344 652.599544,110.996677 C575.387546,100.108677 497.031561,102.992664 388.59019,106.988677 C359.495551,108.059344 329.414205,109.171344 295.824899,110.140677 C272.611567,110.810024 249.878207,111.820677 227.711541,112.802011 C171.619542,115.276677 118.634237,117.616677 79.023558,113.272677 C34.1395725,108.347344 10.2942664,95.2606776 3.98225323,72.0926782 C-2.32178661,48.9286921 0.0395466657,30.9686926 11.0008931,18.7100262 C24.3181994,3.8180399 46.9995455,0.690026649 63.6768784,0.690026649 C73.2142382,0.690026649 80.1755713,1.72867996 80.9462513,1.84601329 C82.3422513,2.06467995 83.2995579,3.37935992 83.0889046,4.77934655 C82.8608779,6.17402651 81.5555846,7.13135982 80.155558,6.91669316 C79.7008913,6.84735983 34.4568658,0.174013329 14.8222663,22.1300128 C5.09423987,33.0140258 3.11425326,49.3700388 8.93554644,70.7420249 C14.614253,91.6140244 37.0688924,103.507357 79.5835713,108.172691 C118.84089,112.486024 171.695542,110.140691 227.910234,107.658024 C249.90222,106.684691 272.652913,105.678024 295.674233,105.012704 C328.822218,104.051371 358.967564,102.944704 388.403564,101.860691 C497.103548,97.8566909 575.650226,94.964691 653.312904,105.914024 C673.86889,108.818024 690.707596,116.46469 703.348876,128.647357 C714.634275,139.519357 722.330235,154.026023 725.596929,170.602022 C729.636888,191.088702 726.906248,213.924688 717.920902,234.910021 M193.208915,242.346021 C193.258235,241.603367 192.414235,241.692701 192.092902,241.964687 L176.568889,255.656687 C176.259569,255.923354 176.292889,256.719354 176.568889,258.276687 L176.908889,260.33402 C177.266236,260.739353 177.818236,260.848687 178.118236,260.5767 L192.775542,247.843367 C193.647568,247.059367 193.492862,246.8527 193.570222,245.348701 L193.208889,242.346034 L193.208915,242.346021 Z M187.999569,199.092688 C186.340915,200.824702 174.288916,212.070021 174.288916,212.070021 C174.288916,212.070021 172.966249,213.052688 173.115582,214.236688 L173.562236,216.752701 C173.562236,216.752701 173.764916,218.556701 175.250262,217.142021 C176.722262,215.726021 181.740902,211.210035 181.740902,211.210035 L188.636902,204.618035 C188.636902,204.618035 190.142235,203.664688 189.894262,201.632688 C189.647595,199.604688 189.538262,198.991368 189.538262,198.991368 C189.538262,198.991368 189.651582,197.356688 187.999569,199.092688 M292.198259,303.582019 C291.982273,303.542019 291.771579,303.542019 291.564913,303.578032 C290.903579,303.692699 290.335579,304.211352 290.194273,304.920686 C290.007593,305.838019 290.607606,306.735339 291.532939,306.920686 L453.774269,339.254018 C454.703589,339.440698 455.595602,338.843378 455.786269,337.915352 C455.964895,336.998032 455.367562,336.106032 454.447602,335.919378 L292.198259,303.582019 Z M500.908947,316.386019 L331.632912,276.8847 C331.406272,276.828686 331.171605,276.828686 330.947605,276.8647 C330.298272,276.974033 329.743578,277.4687 329.584938,278.155353 C329.374245,279.06338 329.942285,279.9847 330.858258,280.199353 L500.134254,319.700672 C501.055601,319.919339 501.967587,319.343379 502.179627,318.426019 C502.398294,317.514032 501.822281,316.596712 500.908961,316.386019" id="path206" fill="#231F20" fill-rule="nonzero"></path>
                                    </g>
                                    <g id="g208" transform="translate(167.999996, 202.666662)">
                                        <path d="M1.08039997,50.7802787 C1.08039997,50.7802787 1.23506664,52.5976254 2.63371993,51.429612 C4.04573323,50.2482787 7.39639982,47.0602922 7.39639982,47.0602922 C7.39639982,47.0602922 8.76038645,46.5936122 8.34173312,42.6909456 C7.9363998,38.7842924 7.31506648,29.7949459 7.31506648,29.7949459 C7.31506648,29.7949459 7.14974649,28.1522926 5.89107985,29.1856126 C4.63774655,30.2122792 1.33239997,33.3936258 1.33239997,33.3936258 L0.707079982,34.1522925 C0.723066649,34.0749458 0.739079982,33.9896125 0.752413315,33.9042925 C1.75375996,28.309626 6.17507985,24.2162794 8.55641312,22.0216261 C8.96707978,21.6402928 9.3324131,21.3082928 9.62041309,21.0202795 C11.6244264,19.0003062 20.9750928,10.3829464 27.781746,4.0909599 C30.5897459,1.50695996 32.7670792,0.682959983 34.0937325,0.444293322 C35.4404124,0.204306662 36.1750658,0.513626654 36.1830658,0.517639987 L36.2284124,0.533626653 L36.2564124,0.545626653 C36.3657458,0.577613319 47.3643988,3.42562658 54.856412,5.67361319 C64.6297451,8.59762645 67.3470783,9.40162643 74.2724115,16.0469463 C79.9724247,21.5309595 79.7644113,30.6589459 79.631078,36.1109458 C79.603078,37.2349457 79.5870913,38.2162657 79.6150913,39.028279 C79.7364247,42.6989323 77.9190914,44.9589455 77.2537581,45.6682789 C73.3150782,44.7442922 38.971079,36.6589458 32.8604125,35.0482791 C30.6657459,34.4682791 28.7350926,34.3255991 27.112426,34.6136125 C24.6950927,35.0442791 23.4284261,36.3429458 22.5897594,37.1896257 C22.5004261,37.2829457 22.4270794,37.3642924 22.3497461,37.4456124 C22.1590928,37.6362924 21.6604128,38.070959 20.9590795,38.674959 C22.5684128,36.3709458 23.9884127,33.3162925 24.9377594,29.8389593 C27.225746,21.4136261 25.8670794,13.713613 21.8990795,12.6349597 C17.9404262,11.5549464 12.8697463,17.5109596 10.5817597,25.9322794 C8.28575979,34.3509458 9.64841309,42.0576256 13.6110797,43.1336123 C14.3017596,43.3282789 15.027093,43.2949456 15.7657596,43.0842789 C11.823093,46.3909455 7.33641315,50.0909454 5.96042652,51.1416121 C4.65909322,52.1309454 3.97641323,53.2509453 3.92042657,54.456292 C3.90042657,55.0069453 4.0177599,55.5069453 4.19241323,55.9322786 C3.04841326,55.4256119 1.57906663,54.192292 0.995093308,51.2429454 C0.621759984,49.3522788 -0.051573332,44.2656122 0.216426661,38.8776124 C0.540426653,42.9669456 1.08041331,50.7802787 1.08041331,50.7802787 M26.7150793,12.8016263 C27.136426,14.8616263 28.2044126,26.710946 28.2044126,26.710946 C28.2044126,26.710946 28.2644126,28.6549593 30.7150792,26.557626 C33.1657458,24.4482927 34.7470791,22.9589461 34.7470791,22.9589461 C34.7470791,22.9589461 36.4964124,22.4149461 35.9564124,17.7869462 C35.4204258,13.157613 34.6497458,5.28027987 34.6497458,5.28027987 C34.6497458,5.28027987 34.7670791,2.6709466 32.7670792,4.41227989 C30.7764126,6.14427985 27.8057593,9.21094644 27.8057593,9.21094644 C27.8057593,9.21094644 26.2937593,10.7482797 26.7150793,12.8016263" id="path210" fill="#231F20" fill-rule="nonzero"></path>
                                    </g>
                                    <g id="g212" transform="translate(179.999996, 221.333328)">
                                        <path d="M1.4725333,8.05346647 C2.84319993,3.02679992 5.86187985,-0.52653332 8.23521313,0.11481333 C10.6005331,0.758813314 11.4111997,5.35614653 10.0445331,10.3814797 C8.68186645,15.4081463 5.65119986,18.9654795 3.28586658,18.3214795 C0.912533311,17.6761329 0.105879997,13.0801463 1.4725333,8.0534798" id="path214" fill="#231F20" fill-rule="nonzero"></path>
                                    </g>
                                    <g id="g216" transform="translate(331.999992, 198.666662)">
                                        <path d="M60.8721451,76.2080114 C47.0147988,85.6119979 24.7787994,77.0480114 11.2134931,57.0719986 C-2.35583994,37.0973324 -2.11719995,13.2759997 11.7454797,3.86401324 C25.602826,-5.54799986 47.8294655,3.01999992 61.3948118,22.9960128 C74.9614648,42.9706789 74.7255048,66.7920117 60.8721451,76.2080114 M58.8028119,24.7800127 C48.7348254,9.96535975 33.0508125,3.06134659 23.7814927,9.36534643 C14.498813,15.6693596 15.140133,32.7840258 25.1894927,47.6040121 C35.2574791,62.4146784 50.9414921,69.3200116 60.2147985,63.0200118 C69.5014649,56.7146919 68.8601449,39.6000257 58.8028119,24.780026" id="path218" fill="#231F20" fill-rule="nonzero"></path>
                                    </g>
                                    <g id="g220" transform="translate(462.666655, 237.333327)">
                                        <path d="M51.2262787,67.9725316 C40.2409323,76.2845448 21.9529595,68.7311983 10.3782931,51.0965321 C-1.17903997,33.4538792 -3.44706658,12.8378663 8.80493311,3.21919992 C18.4715995,-4.36346656 38.6022924,3.35254658 50.1756254,20.9912128 C61.7369451,38.625879 62.2116384,59.6645318 51.2262787,67.9725316 M48.1182921,22.5698661 C39.5342657,9.4992131 27.031626,3.99385323 19.2635995,8.97118644 C14.0903063,12.269853 14.382293,28.371186 22.9583061,41.4498656 C31.5422925,54.5285186 42.9662789,61.8911851 50.3263054,56.3378653 C57.6849452,50.7631987 56.6902786,35.6485324 48.1182921,22.5698661" id="path222" fill="#231F20" fill-rule="nonzero"></path>
                                    </g>
                                    <g id="g224" transform="translate(363.999991, 226.666661)">
                                        <path d="M4.78678655,1.07346664 C6.25878651,0.813453313 7.9267998,1.15479997 9.52946643,1.98281328 C10.2761331,1.93347995 11.0347997,2.27479994 11.4961464,2.95213326 L14.4827996,6.02281318 L16.0241463,9.72681309 C16.4574529,10.3627997 16.5027863,11.1507997 16.2188129,11.8121464 C16.3361196,13.726813 15.7841196,15.3574796 14.6321463,16.4321463 C13.9788263,17.0534796 13.1561597,17.4508262 12.2227997,17.6174929 C9.54147976,18.1041462 6.22279984,16.5708263 3.78411991,13.738813 C2.18678661,11.8721597 1.14015997,9.66949309 0.856146645,7.54815981 C0.552146653,5.3374932 1.09479997,3.46282658 2.38149327,2.25749328 C3.03481326,1.63749329 3.85345324,1.24015997 4.78681321,1.07349331 M12.0241597,16.5014929 C12.746813,16.3761729 13.3628263,16.0708263 13.8534663,15.6041596 C14.5641596,14.948173 14.9654796,14.0188263 15.0748263,12.956173 L9.54549309,15.8921729 C9.37882643,16.0148396 9.1961731,16.0961729 9.00947977,16.1561729 C10.0601331,16.5415063 11.0908131,16.6721862 12.024173,16.5015063 M2.5601466,5.46683986 L8.0441598,2.55883994 C6.98950649,2.16017328 5.94283985,2.02683995 4.98547988,2.18951995 C4.26815989,2.32283994 3.65482658,2.62285327 3.16015992,3.08950659 C2.36149327,3.83618657 1.94682662,4.92283988 1.90283995,6.17218651 C2.06815995,5.90151985 2.28414661,5.65751986 2.5601466,5.46683986" id="path226" fill="#231F20" fill-rule="nonzero"></path>
                                    </g>
                                    <g id="g228" transform="translate(365.333324, 245.333327)">
                                        <path d="M1.97265328,0.300653326 C2.28063994,0.247333327 2.62999993,0.320653325 2.96598659,0.491333321 C3.12866659,0.483319988 3.28731992,0.556666653 3.37666658,0.697999983 L4.00065323,1.3393333 L4.32999989,2.12198661 C4.42334656,2.25131994 4.43131989,2.41798661 4.37398656,2.55665327 C4.39399989,2.96198659 4.27665323,3.29798658 4.0419999,3.52998658 C3.89934657,3.65931991 3.73267991,3.73665324 3.52999991,3.77266657 C2.96998659,3.87398657 2.26865328,3.55798658 1.76201329,2.96199993 C1.4246533,2.5646666 1.2100133,2.10599995 1.1486533,1.65931996 C1.08469331,1.1966533 1.19398664,0.80331998 1.46599996,0.55265332 C1.60333329,0.417986656 1.77402662,0.336653325 1.97266662,0.300653326" id="path230" fill="#231F20" fill-rule="nonzero"></path>
                                    </g>
                                    <g id="g232" transform="translate(483.999988, 266.666660)">
                                        <path d="M1.06159997,0.0331999992 C1.31359997,-0.0107999997 1.58426663,0.0531999987 1.84427995,0.203879995 C1.96561328,0.195866662 2.09627995,0.25986666 2.17761328,0.382533324 L2.67227993,0.937199977 L2.93627993,1.60254663 C3.00826659,1.71721329 3.02161326,1.86654662 2.97229326,1.97987995 C3.00427992,2.31719994 2.91495993,2.60921327 2.72827993,2.7998666 C2.6189466,2.90919993 2.48559994,2.97853326 2.33493327,3.00653326 C1.88962662,3.08786659 1.3376133,2.7998666 0.93629331,2.28921328 C0.672293317,1.95186662 0.489639988,1.55455996 0.432306656,1.1772133 C0.380306657,0.779879981 0.465626655,0.442559989 0.676279983,0.231879994 C0.781626647,0.126559997 0.91497331,0.0572133319 1.06161331,0.0332133325" id="path234" fill="#231F20" fill-rule="nonzero"></path>
                                    </g>
                                    <g id="g236" transform="translate(491.999988, 279.999993)">
                                        <path d="M1.28466663,0.160666663 C1.5246533,0.116666664 1.79533329,0.184679995 2.05931995,0.331346658 C2.18463995,0.323333325 2.30731994,0.387333324 2.38866661,0.513999987 L2.88333326,1.07001331 L3.14733325,1.73001329 C3.21931992,1.85267995 3.23131992,1.99401328 3.19131992,2.10334661 C3.21133325,2.44867994 3.11799992,2.73669326 2.94331993,2.92734659 C2.8339866,3.04069326 2.70067993,3.10601326 2.55001327,3.13401325 C2.10869328,3.21534659 1.56067996,2.93534659 1.1513333,2.41669327 C0.883346645,2.08335995 0.704679982,1.68203996 0.655359984,1.3046933 C0.599333318,0.911359977 0.684653316,0.578026652 0.887333311,0.367359991 C0.996666642,0.25802666 1.13001331,0.188693329 1.28466663,0.160693329" id="path238" fill="#231F20" fill-rule="nonzero"></path>
                                    </g>
                                    <g id="g240" transform="translate(503.999987, 271.999993)">
                                        <path d="M2.8455866,3.47546658 C2.40291994,3.54878658 1.85225329,3.27281325 1.4415733,2.75679993 C1.16959997,2.42481327 1.00423997,2.02746662 0.942919976,1.64614663 C0.894906644,1.2488133 0.966933309,0.919466644 1.17891997,0.708813316 C1.29223997,0.595466652 1.4175733,0.52613332 1.57625329,0.502146654 C1.81090662,0.456799989 2.09090661,0.522146654 2.35489327,0.676813316 C2.4762266,0.668813317 2.6055866,0.732799982 2.6789066,0.846146646 L3.17357325,1.40614663 L3.44155991,2.07947995 C3.51491991,2.19414661 3.51890658,2.33147994 3.47891991,2.44879994 C3.50293325,2.79013326 3.42158658,3.08214659 3.23091992,3.27281325 C3.12158659,3.38213325 2.98690659,3.44747991 2.8455866,3.47546658" id="path242" fill="#231F20" fill-rule="nonzero"></path>
                                    </g>
                                    <g id="g244" transform="translate(495.999988, 258.666660)">
                                        <path d="M2.7726666,3.83734657 C2.33398661,3.9146799 1.78333329,3.63469324 1.37666663,3.12267992 C1.10066664,2.78667993 0.931319977,2.38934661 0.878013311,2.01199995 C0.829999979,1.61866663 0.901973311,1.27734663 1.11401331,1.06666664 C1.21931997,0.961346643 1.35266663,0.896013311 1.5033333,0.864013312 C1.74999996,0.822666646 2.02201328,0.884013311 2.28999994,1.03466664 C2.41133327,1.03466664 2.53267994,1.09067997 2.61401327,1.21599997 L3.10998659,1.77201329 L3.37267992,2.43334661 C3.44599991,2.55601327 3.45397325,2.6973466 3.41398658,2.8106666 C3.43399991,3.15199992 3.34465325,3.44401325 3.16602659,3.63467991 C3.05266659,3.74399991 2.92334659,3.81333324 2.77267993,3.83733324" id="path246" fill="#231F20" fill-rule="nonzero"></path>
                                    </g>
                                    <g id="g248" transform="translate(374.666657, 222.666661)">
                                        <path d="M2.61331993,4.0859999 C2.04931995,4.1913199 1.3519733,3.86733324 0.839999979,3.27401325 C0.507973321,2.88466659 0.28530666,2.41933327 0.231973328,1.98067995 C0.166666662,1.5060133 0.275999993,1.12067997 0.543986653,0.860666645 C0.686639983,0.739346648 0.853306645,0.650013317 1.05199997,0.618013318 C1.3639733,0.556666653 1.70799996,0.633999984 2.04931995,0.80467998 C2.20398661,0.79135998 2.36133327,0.872666645 2.45866661,1.01134664 L3.08797326,1.65666663 L3.41198658,2.43533327 C3.50130658,2.5646666 3.50533325,2.73133327 3.44934658,2.86867993 C3.47330658,3.26999992 3.35998658,3.61534658 3.11601326,3.83401324 C2.98266659,3.97266657 2.81197326,4.0539999 2.61333327,4.08601323" id="path250" fill="#231F20" fill-rule="nonzero"></path>
                                    </g>
                                    <g id="g252" transform="translate(355.999991, 229.333328)">
                                        <path d="M2.11706661,1.23266664 C2.42106661,1.1753333 2.76639993,1.24466664 3.10639992,1.4193333 C3.26907992,1.4073333 3.42374658,1.48067996 3.52106658,1.62201329 L4.1490399,2.26733328 L4.47439989,3.04599992 C4.56774655,3.17934659 4.56774655,3.34199992 4.51838655,3.48465325 C4.53839989,3.88198657 4.42503989,4.22598656 4.17438656,4.44599989 C4.03970657,4.57931989 3.8730399,4.66865322 3.67438657,4.70466655 C3.10639992,4.79798655 2.41706661,4.48599989 1.90639995,3.8819999 C1.56903996,3.48866658 1.34638663,3.03399992 1.28103997,2.59133327 C1.2250533,2.12066661 1.33438663,1.72734662 1.61038663,1.48067996 C1.74771996,1.34999997 1.91841329,1.26467997 2.11705328,1.23267997" id="path254" fill="#231F20" fill-rule="nonzero"></path>
                                    </g>
                                    <g id="g256" transform="translate(382.666657, 237.333327)">
                                        <path d="M2.94347993,4.35146656 C2.36746661,4.29011989 1.79549329,3.79146657 1.47546663,3.06613326 C1.26346664,2.59947994 1.18347997,2.09146661 1.24747997,1.65013329 C1.32079997,1.17946664 1.54749329,0.838146646 1.87279995,0.67546665 C2.04349328,0.586133319 2.23815994,0.558133319 2.42479994,0.582146652 C2.7448266,0.615466651 3.05679992,0.782133314 3.32881325,1.04079997 C3.48746658,1.07813331 3.61681324,1.19546664 3.66214658,1.35814663 L4.0874799,2.14881328 L4.18082656,2.98879993 C4.22082656,3.14214659 4.1887999,3.30479992 4.09549323,3.42213325 C4.00613323,3.8154799 3.78746657,4.1074799 3.49946658,4.25813323 C3.32482658,4.34347989 3.13813325,4.37147989 2.94347993,4.35147989" id="path258" fill="#231F20" fill-rule="nonzero"></path>
                                    </g>
                                    <g id="g260" transform="translate(489.333321, 263.999993)">
                                        <path d="M3.95133323,0.153079996 C5.01798654,-0.0375999991 6.24331984,0.278399993 7.43265315,0.989079975 C7.98734647,0.959746643 8.55134645,1.26106664 8.89265311,1.83307995 L11.1353331,4.42109322 L12.3446797,7.53174648 C12.668653,8.07174646 12.718013,8.72107978 12.5233064,9.26107977 C12.6446397,10.8504131 12.263333,12.185093 11.435333,13.065093 C10.9619864,13.5690797 10.3766531,13.881093 9.69131976,14.006413 C7.72867981,14.3477463 5.26598654,13.0330797 3.42731991,10.6357464 C2.21930661,9.06107977 1.4113333,7.22373315 1.17263997,5.45575986 C0.908639977,3.61709324 1.27399997,2.07174661 2.19534661,1.09841331 C2.6739866,0.595746652 3.25801325,0.282413326 3.95133323,0.153079996 M9.52066643,13.0743997 C10.0526531,12.9850663 10.4953197,12.7450797 10.8513197,12.367733 C11.359333,11.8330664 11.635333,11.0704131 11.6953597,10.1930664 L7.69133314,12.530413 C7.56999981,12.623733 7.44466648,12.6930664 7.31002648,12.7330663 C8.07666646,13.0743997 8.83931978,13.203733 9.52067976,13.0743997 M2.38599994,3.75974657 L6.36069317,1.44374663 C5.57402653,1.09439997 4.80335988,0.959733309 4.11402656,1.08639997 C3.57801324,1.17974664 3.14466659,1.41439996 2.7793466,1.79573329 C2.20731994,2.40506661 1.92733329,3.29707992 1.91134662,4.32773323 C2.02869328,4.11306656 2.18201328,3.9130799 2.38599994,3.75974657" id="path262" fill="#231F20" fill-rule="nonzero"></path>
                                    </g>
                                    <g id="g264" transform="translate(362.666658, 215.999995)">
                                        <path d="M1.65853329,4.49919989 C0.665199983,3.23786659 0.494546654,1.70853329 1.28519997,1.08718664 C2.07585328,0.459199989 3.52518658,0.981866642 4.51453322,2.24318661 C5.51587986,3.50586658 5.67855986,5.03918654 4.88786654,5.65519986 C4.09721323,6.28453318 2.6518666,5.76453319 1.65853329,4.49919989 M3.74386657,2.86053326 C3.28919992,2.28053328 2.61987993,2.04453328 2.26653328,2.32853328 C1.89853329,2.6085466 1.97454662,3.31119992 2.43722661,3.89121324 C2.88786659,4.46321322 3.55319991,4.70586655 3.91053324,4.42186656 C4.27454656,4.13386656 4.20251989,3.43653325 3.74386657,2.86051993" id="path266" fill="#231F20" fill-rule="nonzero"></path>
                                    </g>
                                    <g id="g268" transform="translate(359.999991, 217.333328)">
                                        <path d="M3.11347992,0.336266658 C3.12149326,0.320279992 3.12946659,0.316266659 3.14147992,0.308266659 C2.6548266,1.07091997 2.91081326,2.42559994 3.81481324,3.56959991 C4.71613322,4.71758655 5.97346652,5.27758653 6.83349316,4.98559988 C6.82149316,4.98961321 6.80947983,4.99759988 6.79747983,5.00961321 L5.12149321,6.32827984 C4.42813322,6.87627983 3.32014658,6.62427983 2.63479993,5.76427986 L1.4094533,4.20293323 C0.724146649,3.33361325 0.744133315,2.19361328 1.4374933,1.65093329 L3.11347992,0.336279992 L3.11347992,0.336266658 Z" id="path270" fill="#231F20" fill-rule="nonzero"></path>
                                    </g>
                                    <g id="g272" transform="translate(381.333324, 246.666661)">
                                        <path d="M1.2792133,3.76973324 C0.281893326,2.50839994 0.111199997,0.979066642 0.905879977,0.353733324 C1.69254662,-0.26626666 3.14586659,0.244399994 4.13521323,1.5137333 C5.13257321,2.77641326 5.29923987,4.29773323 4.50455989,4.92574654 C3.71789324,5.55106653 2.26855994,5.03106654 1.2792133,3.76974657 M3.53121325,3.68841324 C3.8912399,3.40042658 3.8231999,2.70307993 3.36454658,2.12307995 C2.90190659,1.54706663 2.24055994,1.3110933 1.87923995,1.59507996 C1.5192133,1.88307995 1.59921329,2.57639994 2.05387995,3.15774659 C2.5085466,3.73774657 3.17387992,3.96841323 3.53121325,3.68839991" id="path274" fill="#231F20" fill-rule="nonzero"></path>
                                    </g>
                                    <g id="g276" transform="translate(378.666657, 246.666661)">
                                        <path d="M2.72921327,0.93373331 C2.74121326,0.92173331 2.7492266,0.91373331 2.76119993,0.905733311 C2.27853328,1.66838662 2.53057327,3.02306659 3.43054658,4.17105323 C4.33989322,5.31906653 5.59322653,5.87906652 6.45321317,5.58306653 C6.44121317,5.59106653 6.42919984,5.60306653 6.41719984,5.61106653 L4.74519988,6.92973316 C4.04789323,7.47774648 2.93587993,7.22573315 2.25053328,6.35773317 L1.02921331,4.80039988 C0.347853325,3.9443999 0.359866658,2.80039993 1.05721331,2.25239994 L2.72921327,0.93373331 Z" id="path278" fill="#231F20" fill-rule="nonzero"></path>
                                    </g>
                                    <g id="g280" transform="translate(487.999988, 253.333327)">
                                        <path d="M1.00838664,3.9739999 C0.11637333,2.84199993 -0.0262799993,1.47534663 0.675053316,0.92733331 C1.38570663,0.367333324 2.67505327,0.829999979 3.56437324,1.96199995 C4.45239989,3.08599992 4.60306655,4.45266656 3.89237324,5.00866654 C3.19103992,5.56866653 1.89635995,5.10198654 1.00838664,3.9739999 M2.87503993,2.5099866 C2.46037327,1.98998662 1.87638662,1.77533329 1.55237329,2.03133328 C1.22306664,2.28199994 1.29638663,2.91133326 1.70170662,3.43399991 C2.10839995,3.9419999 2.69637327,4.15665323 3.02437326,3.89666657 C3.34037325,3.64201324 3.28039992,3.02066659 2.87503993,2.5099866" id="path282" fill="#231F20" fill-rule="nonzero"></path>
                                    </g>
                                    <g id="g284" transform="translate(485.333321, 254.666660)">
                                        <path d="M1.09013331,1.28811997 L2.58745327,0.104119997 C2.59945327,0.0947866643 2.6114666,0.0907999977 2.61947993,0.0867866645 C2.19015995,0.760119981 2.41281327,1.97745328 3.21546659,3.00011992 C4.02349323,4.02678657 5.15146654,4.52545322 5.91814652,4.26145323 C5.91013319,4.26546656 5.89682652,4.27746656 5.88482652,4.28145323 L4.39279989,5.46679986 C3.77549324,5.95746652 2.78215993,5.72678652 2.16879995,4.95479988 L1.07011997,3.56413324 C0.464813322,2.78947993 0.478119988,1.77079996 1.09013331,1.2881333" id="path286" fill="#231F20" fill-rule="nonzero"></path>
                                    </g>
                                    <g id="g288" transform="translate(503.999987, 279.999993)">
                                        <path d="M0.79931998,3.88346657 C-0.0886666645,2.7514666 -0.239333327,1.38879997 0.465986655,0.836799979 C1.16866664,0.280813326 2.46199994,0.743479981 3.35530658,1.86747995 C4.24731989,2.99546659 4.38997322,4.36213322 3.68729324,4.91813321 C2.97399993,5.47411986 1.68330662,5.01145321 0.799306647,3.88346657 M2.81529326,3.81014657 C3.13662659,3.55947991 3.06329326,2.92613326 2.66595993,2.41146661 C2.25531994,1.89547995 1.66331996,1.68081329 1.3392933,1.94079995 C1.01397331,2.19545328 1.07927997,2.82079993 1.48862663,3.33946658 C1.90329329,3.8474799 2.48727994,4.06214657 2.81529326,3.81014657" id="path290" fill="#231F20" fill-rule="nonzero"></path>
                                    </g>
                                    <g id="g292" transform="translate(501.333321, 281.333326)">
                                        <path d="M2.37841327,0.0174799996 C2.39041327,0.00947999976 2.39842661,0.0014933333 2.41442661,-0.00251999994 C1.97709328,0.678813316 2.19974661,1.88814662 3.00773326,2.90949326 C3.82242657,3.92814657 4.93441321,4.43482656 5.70109319,4.1681599 C5.68909319,4.17214656 5.68510652,4.18414656 5.68107986,4.1961599 L4.17574656,5.37215987 C3.55843991,5.86282652 2.5651066,5.63615986 1.95707995,4.86549321 L0.861093312,3.46949325 C0.25310666,2.6988266 0.26510666,1.68415996 0.881106645,1.18947997 L2.37842661,0.0174799996 L2.37841327,0.0174799996 Z" id="path294" fill="#231F20" fill-rule="nonzero"></path>
                                    </g>
                                    <g id="g296" transform="translate(355.999991, 207.999995)">
                                        <path d="M35.2696125,50.1361321 C34.5189591,50.6587987 33.7202925,51.0774521 32.8922925,51.4014787 C39.978959,45.3001455 38.6162924,30.2574792 29.5775993,17.0454662 C22.6122661,6.86681316 9.66297309,-0.479866655 1.08293331,2.77347993 C11.6709464,-3.77451991 25.1962927,4.0881599 33.2416258,15.8401463 C42.3482789,29.1508126 43.2536256,44.5014789 35.2696258,50.1361454" id="path298" fill="#231F20" fill-rule="nonzero"></path>
                                    </g>
                                    <g id="g300" transform="translate(483.999988, 245.333327)">
                                        <path d="M27.2861327,45.8993322 C26.555466,46.2646655 25.8901327,46.7393322 25.1234527,47.0233322 C31.5781192,41.6153323 30.3808126,28.3219993 22.2274528,16.6659863 C15.9434796,7.68466647 7.8021198,1.80599995 0.199453328,2.81265326 C6.25145318,-1.03267997 15.8941196,0.581986652 25.5461327,15.5913196 C32.8314525,26.913986 35.4847724,41.8219856 27.2861193,45.8993189" id="path302" fill="#231F20" fill-rule="nonzero"></path>
                                    </g>
                                </g>
                            </g>
                        </g>
                    </g>
                </g>
            </g>
        </g>
    </g>
</svg>