<?xml version="1.0" encoding="iso-8859-1"?>
<!-- Generator: Adobe Illustrator 19.0.0, SVG Export Plug-In . SVG Version: 6.00 Build 0)  -->
<svg version="1.1" id="Capa_1" xmlns="http://www.w3.org/2000/svg" xmlns:xlink="http://www.w3.org/1999/xlink" x="0px" y="0px"
	 viewBox="0 0 512 512" style="enable-background:new 0 0 512 512;" xml:space="preserve">
<g>
	<circle style="fill:#FFB954;" cx="132.629" cy="121.99" r="23.998"/>
	<circle style="fill:#FFB954;" cx="378.367" cy="392.006" r="23.998"/>
</g>
<path style="fill:#D8D8E4;" d="M399.988,232.024h-42.756v-53.995h42.756V232.024z"/>
<path style="fill:#C9F3FF;" d="M501.979,30.041V158.03c0,11.045-8.953,19.998-19.998,19.998H275.998
	c-11.045,0-19.998-8.953-19.998-19.998V30.041c0-11.045,8.953-19.998,19.998-19.998h205.982
	C493.026,10.043,501.979,18.996,501.979,30.041z"/>
<path style="fill:#4DBAF6;" d="M256,122.034v35.997c0,11.045,8.953,19.998,19.998,19.998h205.982
	c11.045,0,19.998-8.953,19.998-19.998v-35.997C501.979,122.034,256,122.034,256,122.034z"/>
<path style="fill:#D8D8E4;" d="M154.009,502.001h-42.756v-53.995h42.756V502.001z"/>
<path style="fill:#C9F3FF;" d="M256,300.018v127.989c0,11.045-8.953,19.998-19.998,19.998H30.019
	c-11.045,0-19.998-8.953-19.998-19.998V300.018c0-11.045,8.953-19.998,19.998-19.998h205.982
	C247.047,280.02,256,288.973,256,300.018z"/>
<path style="fill:#4DBAF6;" d="M10.021,392.01v35.997c0,11.045,8.953,19.998,19.998,19.998h205.982
	c11.045,0,19.998-8.953,19.998-19.998V392.01H10.021z"/>
<path d="M236.002,270.021H30.019c-16.541,0-29.997,13.457-29.997,29.997v127.989c0,16.541,13.457,29.997,29.997,29.997h71.234
	v33.997H87.288c-5.523,0-9.999,4.478-9.999,9.999S81.765,512,87.288,512h90.66c5.523,0,9.999-4.478,9.999-9.999
	s-4.477-9.999-9.999-9.999h-13.94v-33.997h71.994c16.541,0,29.997-13.457,29.997-29.997V300.018
	C265.999,283.478,252.542,270.021,236.002,270.021z M144.01,492.002h-22.758v-33.997h22.758V492.002z M246.001,428.007
	c0,5.514-4.486,9.999-9.999,9.999H30.019c-5.514,0-9.999-4.486-9.999-9.999v-25.998h159.986c5.523,0,9.999-4.478,9.999-9.999
	c0-5.522-4.477-9.999-9.999-9.999H20.02v-81.993c0-5.514,4.486-9.999,9.999-9.999h205.982c5.514,0,9.999,4.486,9.999,9.999V428.007z
	"/>
<path d="M216.363,382.011c-2.63,0-5.2,1.069-7.069,2.93c-1.86,1.86-2.92,4.44-2.92,7.069c0,2.63,1.06,5.21,2.92,7.068
	c1.87,1.86,4.45,2.931,7.069,2.931c2.64,0,5.21-1.07,7.069-2.931c1.87-1.859,2.94-4.439,2.94-7.068c0-2.63-1.07-5.21-2.94-7.069
	C221.573,383.08,219.003,382.011,216.363,382.011z"/>
<path d="M481.981,0H275.998c-16.541,0-29.997,13.457-29.997,29.997v127.989c0,16.541,13.457,29.997,29.997,29.997h71.234v33.997
	h-13.573c-5.523,0-9.999,4.478-9.999,9.999s4.477,9.999,9.999,9.999h90.66c5.523,0,9.999-4.478,9.999-9.999
	s-4.477-9.999-9.999-9.999h-14.333v-33.997h71.994c16.541,0,29.997-13.457,29.997-29.997V29.997C511.978,13.457,498.521,0,481.981,0
	z M389.988,221.981H367.23v-33.997h22.758V221.981z M491.98,157.986c0,5.514-4.486,9.999-9.999,9.999H275.998
	c-5.514,0-9.999-4.486-9.999-9.999v-25.998h159.986c5.523,0,9.999-4.478,9.999-9.999c0-5.522-4.477-9.999-9.999-9.999H265.999
	V29.997c0-5.514,4.486-9.999,9.999-9.999h205.982c5.514,0,9.999,4.486,9.999,9.999V157.986z"/>
<path d="M462.342,111.994c-2.63,0-5.2,1.06-7.069,2.93c-1.86,1.86-2.93,4.43-2.93,7.069c0,2.63,1.07,5.2,2.93,7.069
	c1.87,1.859,4.44,2.93,7.069,2.93c2.63,0,5.21-1.07,7.079-2.93c1.86-1.86,2.92-4.44,2.92-7.069c0-2.641-1.06-5.21-2.92-7.069
	C467.552,113.053,464.982,111.994,462.342,111.994z"/>
<path d="M122.631,154.484v89.495c0,5.522,4.477,9.999,9.999,9.999c5.523,0,9.999-4.478,9.999-9.999v-89.495
	c10.718-3.305,19.19-11.777,22.495-22.495h59.874c5.523,0,9.999-4.478,9.999-9.999c0-5.522-4.477-9.999-9.999-9.999h-59.874
	c-4.281-13.882-17.228-23.998-32.494-23.998c-18.746,0-33.997,15.251-33.997,33.997C98.634,137.257,108.75,150.204,122.631,154.484z
	 M132.631,107.991c7.719,0,13.999,6.279,13.999,13.999s-6.279,13.999-13.999,13.999s-13.999-6.279-13.999-13.999
	S124.911,107.991,132.631,107.991z"/>
<path d="M388.364,359.516v-89.495c0-5.522-4.477-9.999-9.999-9.999c-5.523,0-9.999,4.478-9.999,9.999v89.495
	c-10.718,3.305-19.19,11.777-22.495,22.495h-59.873c-5.523,0-9.999,4.478-9.999,9.999c0,5.522,4.477,9.999,9.999,9.999h59.873
	c4.281,13.882,17.228,23.998,32.494,23.998c18.746,0,33.997-15.251,33.997-33.997C412.362,376.743,402.245,363.796,388.364,359.516z
	 M378.365,406.009c-7.719,0-13.999-6.279-13.999-13.999s6.279-13.999,13.999-13.999s13.999,6.279,13.999,13.999
	S386.084,406.009,378.365,406.009z"/>
<g>
</g>
<g>
</g>
<g>
</g>
<g>
</g>
<g>
</g>
<g>
</g>
<g>
</g>
<g>
</g>
<g>
</g>
<g>
</g>
<g>
</g>
<g>
</g>
<g>
</g>
<g>
</g>
<g>
</g>
</svg>
