<?xml version="1.0" encoding="iso-8859-1"?>
<!-- Generator: Adobe Illustrator 19.0.0, SVG Export Plug-In . SVG Version: 6.00 Build 0)  -->
<svg version="1.1" id="Capa_1" xmlns="http://www.w3.org/2000/svg" xmlns:xlink="http://www.w3.org/1999/xlink" x="0px" y="0px"
	 viewBox="0 0 512 512" style="enable-background:new 0 0 512 512;" xml:space="preserve">
<path style="fill:#FFD34E;" d="M256,9.998c0,0-43,47.427-90,47.427v56.135c0,48.855,36.014,92.448,90,108.938l0,0l0,0
	c53.985-16.49,90-60.083,90-108.938V57.425C299,57.425,256,9.998,256,9.998z"/>
<path style="fill:#FAA589;" d="M213,90.72v31.507c0,23.342,17.207,44.169,43,52.048l0,0l0,0c25.793-7.879,43-28.707,43-52.048V90.72
	l-43-20.722L213,90.72z"/>
<g>
	<rect x="10" y="243" style="fill:#656970;" width="40" height="160"/>
	<rect x="462" y="243" style="fill:#656970;" width="40" height="160"/>
</g>
<path style="fill:#4696E6;" d="M390,452.997c0-16.569-30-70-30-70s-30,53.431-30,70s13.431,30,30,30S390,469.566,390,452.997z"/>
<rect x="50" y="263" style="fill:#A0A2A8;" width="412" height="120"/>
<path style="fill:#5AD2E6;" d="M290,466.298c0-19.717-35.7-83.3-35.7-83.3s-35.7,63.583-35.7,83.3c0,19.717,15.983,35.7,35.7,35.7
	S290,486.015,290,466.298z"/>
<path style="fill:#4696E6;" d="M211,372.997c0-16.569-30-70-30-70s-30,53.431-30,70s13.431,30,30,30S211,389.566,211,372.997z"/>
<path d="M253.079,232.062c1.825,0.557,4.015,0.559,5.843,0C316.987,214.325,356,166.703,356,113.561V57.425c0-5.522-4.477-10-10-10
	c-41.925,0-82.196-43.709-82.598-44.15c-1.893-2.084-4.58-3.27-7.405-3.272c-2.815,0-5.503,1.19-7.398,3.272
	c-0.402,0.441-40.673,44.15-82.598,44.15c-5.523,0-10,4.478-10,10v56.136C156,166.703,195.013,214.325,253.079,232.062z M176,66.813
	c35.3-4.261,66.3-29.735,80-42.659c13.7,12.924,44.7,38.398,80,42.659v46.747c0,43.413-32.021,82.644-80,98.446
	c-47.979-15.803-80-55.033-80-98.446V66.813z"/>
<path d="M253.079,183.839c1.769,0.54,3.998,0.564,5.842,0C288.875,174.69,309,149.931,309,122.228V90.721
	c0-3.84-2.199-7.341-5.659-9.009l-43-20.723c-2.743-1.322-5.939-1.322-8.683,0l-43,20.723C205.199,83.38,203,86.881,203,90.721
	v31.507C203,149.931,223.125,174.69,253.079,183.839z M223,97.002l33-15.903l33,15.903v25.226c0,17.981-13.137,34.347-33,41.512
	c-19.863-7.165-33-23.53-33-41.512V97.002z"/>
<path d="M502,232.998h-40c-5.523,0-10,4.478-10,10v10H60v-10c0-5.522-4.477-10-10-10H10c-5.523,0-10,4.478-10,10v160
	c0,5.522,4.477,10,10,10h40c5.523,0,10-4.478,10-10v-10h86.381c6.927,11.944,19.846,20,34.619,20s27.691-8.056,34.619-20h21.861
	c-11.259,21.308-28.88,57.223-28.88,73.3c0,25.199,20.501,45.7,45.7,45.7s45.7-20.501,45.7-45.7c0-16.077-17.621-51.992-28.88-73.3
	h72.107c-9.524,18.229-23.227,46.757-23.227,60c0,22.056,17.944,40,40,40s40-17.944,40-40c0-13.243-13.703-41.771-23.227-60H452v10
	c0,5.522,4.477,10,10,10h40c5.523,0,10-4.478,10-10v-160C512,237.476,507.523,232.998,502,232.998z M40,392.997H20v-140h20V392.997z
	 M258.858,272.997l-20,20H134.142l-20-20H258.858z M60,372.997v-100h25.857l30,30l-27.929,27.929
	c-3.905,3.905-3.905,10.237,0,14.143c1.953,1.952,4.512,2.929,7.071,2.929s5.119-0.977,7.071-2.929l32.071-32.071h30.084
	c-9.524,18.229-23.227,46.757-23.227,60H60V372.997z M181,392.997c-11.028,0-20-8.972-20-20c0-6.797,9.292-28.104,20.001-48.882
	C191.708,344.889,201,366.194,201,372.997C201,384.026,192.028,392.997,181,392.997z M280,466.298c0,14.171-11.529,25.7-25.7,25.7
	s-25.7-11.529-25.7-25.7c0-9.517,13.123-38.183,25.7-62.272C266.877,428.115,280,456.781,280,466.298z M380,452.997
	c0,11.028-8.972,20-20,20s-20-8.972-20-20c0-6.797,9.292-28.104,20.001-48.882C370.708,424.889,380,446.194,380,452.997z
	 M452,372.997H221c0-13.243-13.703-41.771-23.227-60h41.087l36.569,36.569c1.89,1.891,4.4,2.931,7.07,2.931h36.14
	c5.51,0,10-4.49,10-10s-4.49-10-10-10h-32L257.141,303l30.001-30.001H452V372.997z M492,392.997h-20v-140h20V392.997z"/>
<path d="M358.64,352.497c5.51,0,10-4.49,10-10s-4.49-10-10-10c-5.52,0-10,4.49-10,10S353.12,352.497,358.64,352.497z"/>
<g>
</g>
<g>
</g>
<g>
</g>
<g>
</g>
<g>
</g>
<g>
</g>
<g>
</g>
<g>
</g>
<g>
</g>
<g>
</g>
<g>
</g>
<g>
</g>
<g>
</g>
<g>
</g>
<g>
</g>
</svg>
