<?xml version="1.0"?>
<svg xmlns="http://www.w3.org/2000/svg" height="512px" viewBox="0 0 60 60" width="512px" class=""><g><g id="Page-1" fill="none" fill-rule="evenodd"><g id="025---Building-3D-Map" fill-rule="nonzero"><path id="Shape" d="m57.38 59h-29.38c.3233079-.0012862.6260457-.1588027.8126492-.4228269.1866036-.2640241.2340458-.6019751.1273508-.9071731l-1.96-5.67h28.52l2.78 5.55c.1567797.3111094.1403468.6813893-.0433761.9773872-.1837229.295998-.508252.4750458-.8566239.4726128z" fill="#7f8e94" data-original="#7F8E94" class="" style="fill:#7F8E94"/><path id="Shape" d="m58.28 57.55-2.78-5.55h-3l2.78 5.55c.1567797.3111094.1403468.6813893-.0433761.9773872-.1837229.295998-.508252.4750458-.8566239.4726128h3c.3483719.002433.672901-.1766148.8566239-.4726128.1837229-.2959979.2001558-.6662778.0433761-.9773872z" fill="#545c60" data-original="#545C60" style="fill:#545C60"/><path id="Shape" d="m57.38 52h-30.4l-2.43-7h30.95l2.78 5.55c.1567797.3111094.1403468.6813893-.0433761.9773872-.1837229.295998-.508252.4750458-.8566239.4726128z" fill="#a0522d" data-original="#A0522D" class="" style="fill:#A0522D"/><path id="Shape" d="m58.28 50.55-2.78-5.55h-3l2.78 5.55c.1567797.3111094.1403468.6813893-.0433761.9773872-.1837229.295998-.508252.4750458-.8566239.4726128h3c.3483719.002433.672901-.1766148.8566239-.4726128.1837229-.2959979.2001558-.6662778.0433761-.9773872z" fill="#783e22" data-original="#783E22" style="fill:#783E22"/><path id="Shape" d="m51 45h-26.45l-1.38-4-2.77-8h2.6c1.1045695 0 2-.8954305 2-2v-6h16c.7663253.6372206 1.1049371 1.6539267.8737109 2.6233796-.2312262.969453-.9922738 1.7238771-1.9637109 1.9466204-1.69.58-3.54.57-5.19 1.32-2.22.99-2.45 3.43-.42 4.94 2.97 2.2 7.17.84 10.52 1.63 3.57.83 6.55 3.63 6.18 7.54z" fill="#a4c400" data-original="#A4C400" class="" style="fill:#A4C400"/><path id="Shape" d="m44.82 37.46c-3.35-.79-7.55.57-10.52-1.63-2.03-1.51-1.8-3.95.42-4.94 1.65-.75 3.5-.74 5.19-1.32.9714371-.2227433 1.7324847-.9771674 1.9637109-1.9466204.2312262-.9694529-.1073856-1.986159-.8737109-2.6233796h-3c.7663253.6372206 1.1049371 1.6539267.8737109 2.6233796-.2312262.969453-.9922738 1.7238771-1.9637109 1.9466204-1.69.58-3.54.57-5.19 1.32-2.22.99-2.45 3.43-.42 4.94 2.97 2.2 7.17.84 10.52 1.63 3.57.83 6.55 3.63 6.18 7.54h3c.37-3.91-2.61-6.71-6.18-7.54z" fill="#90ac00" data-original="#90AC00" class="" style="fill:#90AC00"/><path id="Shape" d="m57.38 45h-6.38c.37-3.91-2.61-6.71-6.18-7.54-3.35-.79-7.55.57-10.52-1.63-2.03-1.51-1.8-3.95.42-4.94 1.65-.75 3.5-.74 5.19-1.32.9714371-.2227433 1.7324847-.9771674 1.9637109-1.9466204.2312262-.9694529-.1073856-1.986159-.8737109-2.6233796h7.38c.3801569-.0026457.7289345.2104962.9.55l9 18c.1567797.3111094.1403468.6813893-.0433761.9773872-.1837229.295998-.508252.4750458-.8566239.4726128z" fill="#60a917" data-original="#60A917" class="" style="fill:#60A917"/><path id="Shape" d="m58.28 43.55-9-18c-.1710655-.3395038-.5198431-.5526457-.9-.55l-3-.0000243c.3801569-.0026214.7289345.2105205.9.5500243l9 18c.1567797.3111094.1403468.6813893-.0433761.9773872-.1837229.295998-.508252.4750458-.8566239.4726128h3c.3483719.002433.672901-.1766148.8566239-.4726128.1837229-.2959979.2001558-.6662778.0433761-.9773872z" fill="#549414" data-original="#549414" class="" style="fill:#549414"/><path id="Shape" d="m25 12v19c0 1.1045695-.8954305 2-2 2h-16c-1.10320187-.0032948-1.9967052-.8967981-2-2v-19c.0032948-1.1032019.89679813-1.9967052 2-2h16c1.1045695 0 2 .8954305 2 2z" fill="#ffeb3a" data-original="#FFEB3A" class="" style="fill:#C12020" data-old_color="#ffeb3a"/><path id="Shape" d="m23 10h-3c1.1045695 0 2 .8954305 2 2v19c0 1.1045695-.8954305 2-2 2h3c1.1045695 0 2-.8954305 2-2v-19c0-1.1045695-.8954305-2-2-2z" fill="#fdd834" data-original="#FDD834" class="" style="fill:#800E0E" data-old_color="#fdd834"/><path id="Shape" d="m23 6v4h-4v-4c0-.55228475-.4477153-1-1-1h-6c-.5522847 0-1 .44771525-1 1v4h-4v-4c0-2.76142375 2.23857625-5 5-5h6c1.3260824 0 2.597852.5267842 3.5355339 1.46446609.9376819.9376819 1.4644661 2.20945146 1.4644661 3.53553391z" fill="#37474f" data-original="#37474F" style="fill:#FFFFFF" class="" data-old_color="#37474f"/><circle id="Oval" cx="15.004" cy="20" fill="#00bcd4" r="5" data-original="#00BCD4" class="active-path" style="fill:#ABACAC" data-old_color="#00bcd4"/><path id="Shape" d="m15 15c-.5100854.0070414-1.0160331.0927153-1.5.254 2.0807519.6438254 3.4994946 2.5679184 3.4994946 4.746s-1.4187427 4.1021746-3.4994946 4.746c1.8757024.5955702 3.9262648.0330725 5.2355561-1.4361857 1.3092914-1.4692582 1.6327423-3.5708265.8258444-5.3657859s-2.5934199-2.9480201-4.5614005-2.9440284z" fill="#00838f" data-original="#00838F" class="" style="fill:#7B7979" data-old_color="#00838f"/><path id="Shape" d="m17 33v20c0 .5522847-.4477153 1-1 1h-2c-.5522847 0-1-.4477153-1-1v-20z" fill="#9e9e9e" data-original="#9E9E9E" class="" style="fill:#9E9E9E"/><path id="Shape" d="m13 33v2.43l-7.93 22.9c-.14100002.4033622-.52271153.6725692-.95.67h-2.12c-.32330788-.0012862-.62604568-.1588027-.81264923-.4228269-.18660354-.2640241-.23404577-.6019751-.12735077-.9071731l8.54-24.67z" fill="#cfd8dc" data-original="#CFD8DC" class="" style="fill:#CFD8DC"/><path id="Shape" d="m28 59h-2.12c-.4272885.0025692-.809-.2666378-.95-.67l-7.93-22.9v-2.43h3.4l2.77 8 1.38 4 2.43 7 1.96 5.67c.106695.305198.0592528.643149-.1273508.9071731-.1866035.2640242-.4893413.4215407-.8126492.4228269z" fill="#cfd8dc" data-original="#CFD8DC" class="" style="fill:#CFD8DC"/><g fill="#000"><path id="Shape" d="m21 20c0-3.3137085-2.6862915-6-6-6s-6 2.6862915-6 6 2.6862915 6 6 6c3.3123376-.0033074 5.9966926-2.6876624 6-6zm-10 0c0-2.209139 1.790861-4 4-4s4 1.790861 4 4-1.790861 4-4 4c-1.060866 0-2.0782816-.4214274-2.8284271-1.1715729s-1.1715729-1.7675611-1.1715729-2.8284271z" data-original="#000" class="" style="fill:#000000" data-old_color="#000"/><path id="Shape" d="m.367 59.156c.37514196.5296362.98396542.8443006 1.633.844h2.12c.85275761.0001329 1.61258775-.5383641 1.895-1.343l5.985-17.283v11.626c0 1.1045695.8954305 2 2 2h2c1.1045695 0 2-.8954305 2-2v-11.626l5.986 17.287c.2833976.8020193 1.0413832 1.3384584 1.892 1.339h2.122c.6467537-.0012956 1.2529587-.3152615 1.6271853-.8427522.3742266-.5274908.470275-1.2033856.2578147-1.8142478l-8.085-23.343h1.2c1.6568542 0 3-1.3431458 3-3v-19c-.0052514-1.2667854-.8056491-2.39374545-2-2.816v-3.184c-.0033074-3.31233757-2.6876624-5.99669262-6-6h-6c-3.31233757.00330738-5.99669262 2.68766243-6 6v3.184c-1.19435087.42225455-1.99474861 1.5492146-2 2.816v19c0 1.6568542 1.34314575 3 3 3h1.2l-8.085 23.336c-.21612798.6116344-.1221864 1.2901014.252 1.82zm13.633-6.156v-19h2v19zm14 5h-2.125l-7.875-22.738v-1.262h1.689zm-16-56h6c2.209139 0 4 1.790861 4 4v3h-2v-3c0-1.1045695-.8954305-2-2-2h-6c-1.1045695 0-2 .8954305-2 2v3h-2v-3c0-2.209139 1.790861-4 4-4zm6 7h-6v-3h6zm-12 22v-1h5c.5522847 0 1-.4477153 1-1s-.4477153-1-1-1h-5v-16c0-.5522847.44771525-1 1-1h16c.5522847 0 1 .4477153 1 1v16h-5c-.5522847 0-1 .4477153-1 1s.4477153 1 1 1h5v1c0 .5522847-.4477153 1-1 1h-16c-.55228475 0-1-.4477153-1-1zm4.312 3h1.688v1.262l-7.882 22.738h-2.118z" data-original="#000" class="" style="fill:#000000" data-old_color="#000"/><path id="Shape" d="m28 25c0 .5522847.4477153 1 1 1h11.522c.3262837.3950698.4623252.9136364.372 1.418-.1949926.600363-.68684 1.0570244-1.3 1.207-.7001407.2187954-1.4153952.3859109-2.14.5-1.0785533.1539338-2.1341205.4397396-3.143.851-1.2864643.5045123-2.1985351 1.6665126-2.383 3.036-.1074675 1.4380582.5701737 2.8220218 1.772 3.619 2.12 1.572 4.641 1.551 7.1 1.545 1.2721762-.0615153 2.5472076.0233749 3.8.253 2.667.624 5.228 2.571 5.413 5.571h-21.223c-.5522847 0-1 .4477153-1 1s.4477153 1 1 1h26.092l2.5 5h-26.172c-.5522847 0-1 .4477153-1 1s.4477153 1 1 1h23.672l2.5 5h-24.492c-.5522847 0-1 .4477153-1 1s.4477153 1 1 1h24.492c.6947884.0010227 1.3403254-.3586134 1.7051109-.9499369.3647854-.5913236.396545-1.3295969.0838891-1.9500631l-2.053-4.1h.264c.6947884.0010227 1.3403254-.3586134 1.7051109-.9499369.3647854-.5913236.396545-1.3295969.0838891-1.9500631l-2.053-4.1h.264c.6947884.0010227 1.3403254-.3586134 1.7051109-.9499369.3647854-.5913236.396545-1.3295969.0838891-1.9500631l-9-18c-.3380169-.6775994-1.0317821-1.1041738-1.789-1.1h-19.382c-.5522847 0-1 .4477153-1 1zm29.382 19h-5.372c-.181-3.56-2.9-6.57-6.959-7.519-1.4041831-.2652706-2.8345025-.36595-4.262-.3-2.216.009-4.31.024-5.9-1.152-.6238264-.3826258-.9968091-1.0683958-.979-1.8.1197106-.6605985.584708-1.2061496 1.218-1.429.8632583-.3423187 1.7643029-.5803368 2.684-.709.8205872-.1296863 1.6304618-.3198715 2.423-.569 1.2627606-.3645157 2.2466196-1.357078 2.6-2.623.1512653-.628441.1232021-1.2867132-.081-1.9h5.627z" data-original="#000" class="" style="fill:#000000" data-old_color="#000"/></g></g></g></g> </svg>
