<?xml version="1.0" encoding="UTF-8"?>
<svg width="987px" height="182px" viewBox="0 0 987 182" version="1.1" xmlns="http://www.w3.org/2000/svg" xmlns:xlink="http://www.w3.org/1999/xlink">
    <!-- Generator: Sketch 64 (93537) - https://sketch.com -->
    <title>Cover Photo</title>
    <desc>Created with Sketch.</desc>
    <g id="Cover-Photo" stroke="none" stroke-width="1" fill="none" fill-rule="evenodd">
        <path d="M310.950175,9.00057457 C311.887862,9.06129678 312.157662,8.82648104 314.245967,10.0506728 C316.239654,11.2279731 322.161462,14.8932005 322.651485,15.1965922 L322.683828,15.216619 L332.945483,13.0875276 C332.945483,13.0875276 334.976918,12.5162381 337.942072,14.0024498 C337.942072,14.0024498 342.42948,16.8732154 344.143503,23.1072868 C344.711141,25.2083149 344.854883,27.8097328 344.863835,27.9808262 L344.864292,27.9897359 L348.68249,30.237667 C348.68249,30.237667 350.561832,31.191248 351.137141,32.2106919 C351.876508,33.4897695 351.956101,34.3402801 351.962005,34.4183807 L351.962411,34.4242598 L358.319903,34.6633709 L358.34754,34.6396123 C358.484667,34.5251846 359.12409,34.0307666 360.086828,33.8930608 C361.180575,33.731267 369.949073,31.3745188 369.949073,31.3745188 C369.949073,31.3745188 370.568026,31.0781356 371.127464,31.3573372 C371.698805,31.627948 372.094247,31.7496513 372.094247,31.7496513 C372.094247,31.7496513 372.210632,31.1053398 373.940525,32.13767 C375.674387,33.1785909 378.829988,35.0642758 378.829988,35.0642758 C378.829988,35.0642758 381.574277,33.200068 384.639945,34.240989 C387.066821,35.0728667 389.569084,37.3165024 390.711766,40.7370804 L391,40.719 L391.000488,48.4623833 C390.389007,51.0671657 389.04198,52.8945432 387.216269,53.5918101 C384.411144,54.6599353 384.277566,54.7945248 384.277566,54.7945248 C384.277566,54.7945248 384.105635,56.088875 383.89535,56.4153261 C383.690355,56.7460727 383.380878,58.6288939 382.785731,59.4206812 C382.206455,60.2139002 381.65892,60.5231697 381.65892,60.5231697 C381.65892,60.5231697 381.960461,61.2419349 379.27701,61.794611 C376.592236,62.3573096 370.810053,64.1699726 370.150101,64.4520378 C369.498084,64.7441257 369.015354,65.5588217 369.015354,65.5588217 C369.015354,65.5588217 367.567163,71.4406695 366.227421,74.8512249 C366.243292,74.5677279 366.251227,74.2942535 366.251227,74.0107564 C366.468125,63.6559552 363.381297,55.3300192 357.563405,50.5563872 C355.237042,48.6563842 352.577396,47.40642 349.640015,46.8437213 C343.853865,45.7297783 337.358828,47.3018983 330.865114,51.4097419 C324.354207,55.5175855 318.39877,61.8347015 313.641562,69.6895742 C307.573709,79.7093334 303.948603,90.5910382 303.440744,100.353073 C303.215911,104.748709 303.613998,108.817894 304.640295,112.477583 C296.117792,115.203736 287.603223,117.91414 280.45617,120.20073 C269.945875,123.572626 257.39092,127.806469 244.993349,131.858472 C247.859312,124.425981 249.351147,116.768697 249.279729,109.470796 C249.230795,103.829491 248.249463,98.7022037 246.378057,94.2278185 C244.410105,89.5415264 241.537529,85.7902019 237.84365,83.066912 C235.070266,81.0323196 231.94376,79.6692429 228.531585,79.0120452 C224.983187,78.3276432 221.171601,78.4192787 217.233051,79.2855196 C213.373854,80.1360108 209.478948,81.7038353 205.635621,83.9474711 C197.708264,88.590809 190.545341,95.774166 184.932444,104.727232 C178.03932,115.709163 174.301797,128.08567 174.406279,139.555846 C174.418182,140.88456 174.481664,142.191796 174.599371,143.458942 C168.770564,138.401488 159.764267,130.882062 159.288076,130.484623 L159.268386,130.468191 L159.236074,130.480213 C158.735279,130.666375 152.541229,132.962889 149.634941,133.748452 C146.698883,134.536868 145.537738,134.979326 145.46588,135.007051 L145.4623,135.008439 L133.177145,124.530503 C134.463985,124.235551 135.522024,123.707216 136.400196,122.949792 C138.713334,120.968176 139.662924,117.587689 140.443228,112.759648 C141.750237,104.848434 138.903602,97.3954808 133.84996,94.1296621 L133.591103,93.9672303 L133.212854,96.9596991 C137.056181,99.8089876 139.164323,105.74238 138.13009,112.055201 C137.082817,118.461239 135.67811,121.786788 130.355423,121.970748 L130.066511,121.977598 L127.092099,145.593761 L127.229644,146.512978 C127.229644,146.512978 78.6286235,162.854149 63.1680291,167.380079 C49.0405637,171.513695 37.1931723,172.733591 37.1931723,172.733591 L37.1734414,172.741028 L37.1161787,172.760207 C36.7658826,172.869792 35.2841293,173.209432 33.9950253,171.630203 L33.8577045,171.453559 L15.5404048,152.830094 C15.5404048,152.830094 15.3393774,152.729868 15.3843441,150.320143 C15.4438588,147.349151 15.8221077,142.426612 15.8221077,142.426612 C15.8221077,142.426612 15.8631067,140.453587 17.3562642,140.056977 C18.1722768,139.847934 18.9856442,139.54296 19.5530176,139.303849 C20.0040067,139.764889 20.4219321,140.187271 20.7882781,140.549518 C21.1903329,140.954718 21.5408083,141.306942 21.7987053,141.586143 C23.6568863,143.607849 31.4030541,151.362496 39.858108,159.808703 C42.2796947,162.231314 44.6179608,163.668845 46.7988436,164.086932 C48.3925148,164.396201 49.3698783,164.03825 49.6158724,163.929433 C50.2758242,163.711799 60.7623129,160.849624 67.9159789,158.462808 C78.1617638,155.047958 80.7248632,154.329192 87.8190145,146.948246 C93.9106739,140.615381 93.6898082,130.412351 93.5575534,124.317164 C93.5324249,123.133063 93.5086191,122.096437 93.5324249,121.27315 C93.6979493,115.939206 90.7593179,112.992579 90.5037616,112.746468 L90.4905629,112.733876 L90.2366335,112.490469 L89.895416,112.577809 C89.5211347,112.663717 51.8774307,122.243913 45.4670371,124.073758 C43.4792464,124.63932 41.757288,124.792523 40.3448059,124.526207 C38.3728858,124.135325 37.346588,122.997041 36.5900901,122.165164 C36.505447,122.064938 36.4128686,121.969007 36.3321931,121.883099 C35.0122895,120.454159 22.12802,108.843666 19.9471371,107.049617 C18.9975472,106.260693 18.4949787,105.437406 18.4579473,104.605529 C18.4128414,103.470184 19.2223731,102.577714 19.3144591,102.479611 L19.3228941,102.47071 L20.6031213,101.229336 L18.8851305,101.197837 C18.8643004,101.197837 18.7037347,101.197837 18.4486197,101.233327 L18.3336277,101.250813 L19.1469952,94.3724306 C19.1469952,94.3724306 18.6589747,93.845527 21.3318456,92.8733326 C24.0113293,91.90257 28.5952832,90.0727254 28.5952832,90.0727254 C28.5952832,90.0727254 27.8705265,89.6188438 35.4910522,87.3795035 C35.4910522,87.3795035 75.872432,78.0355554 86.5797864,75.9880767 C86.5797864,75.9880767 102.015252,73.6313285 105.933964,72.951222 C105.933964,72.951222 112.206761,71.3132089 117.5015,72.7644496 L117.789291,72.8467004 L117.821032,72.4729997 L117.881869,72.1107535 L117.823896,72.0813718 C117.28369,71.8012059 113.167874,69.5259128 113.957867,65.6203893 C115.181225,59.5867703 118.384438,59.2989779 119.974141,59.3519546 C120.42513,55.2484064 124.343842,52.4864579 124.343842,52.4864579 C124.343842,52.4864579 124.556773,46.1335469 129.329851,45.1155347 C134.105574,44.0917954 288.251272,11.9320623 288.251272,11.9320623 C288.251272,11.9320623 289.538112,11.7759958 290.391156,12.3458535 C291.257425,12.9257338 291.52987,13.1004138 291.52987,13.1004138 C291.52987,13.1004138 309.996618,8.94388891 310.950175,9.00057457 Z M236.488361,86.1053237 C250.296818,96.2294788 250.532053,121.842358 237.009335,143.319272 C223.487946,164.79762 201.333281,174.009999 187.520837,163.890144 C173.703078,153.77029 173.465184,128.157411 186.990561,106.680497 C200.51195,85.2021493 222.675918,75.9940712 236.488361,86.1053237 Z M18.6238495,147.97539 L18.6232659,147.980577 L18.1802121,150.682389 C18.0320866,151.953831 19.3440549,153.00907 19.3440549,153.00907 L19.4030786,153.068706 C20.309207,153.98435 31.3661858,165.161333 32.9438233,166.944811 C34.4888247,168.702493 34.4771744,167.242425 34.4707981,167.069821 L34.4705274,167.050656 C34.4785883,167.000717 34.587904,166.311238 34.8231651,164.217226 C35.0600482,162.115975 33.6842202,161.08884 33.5819821,161.015638 L33.5760016,161.011418 L26.7357797,153.932583 L26.7082469,153.905753 C26.309554,153.517178 21.694224,149.016953 20.2976125,147.56249 C18.8689393,146.089381 18.6366177,147.866343 18.6238495,147.97539 Z M18.0109628,103 C17.8374412,103.459165 17.7208771,103.998936 17.740746,104.593403 C17.7963789,105.89461 18.47457,107.103696 19.7673718,108.171723 C21.1343507,109.305961 25.5916028,113.300264 29.5084213,116.869947 C28.7745973,116.642524 28.0540193,116.606539 27.3678806,116.81669 C23.4311932,117.978276 22.0774602,126.297941 24.3584076,135.38624 C26.6314075,144.477418 31.6688308,150.907166 35.6015445,149.741261 C39.5435302,148.576796 40.8932895,140.264328 38.6202896,131.168832 C37.6771801,127.414907 36.2664897,124.117268 34.6677071,121.630005 C35.3644425,122.282048 35.8598399,122.751288 36.0492566,122.957121 C36.1260829,123.044924 36.1989355,123.132726 36.2876831,123.233483 C37.1208515,124.147495 38.3792139,125.549459 40.7806992,126.014382 C42.3927276,126.32529 44.3107368,126.171275 46.4910153,125.545141 C52.5616204,123.80636 86.6804609,115.077908 90.5933057,114.080412 C91.2542771,114.846167 93.059696,117.28593 92.9391581,121.248567 C92.9113417,122.125154 92.9272368,123.184544 92.9550532,124.397949 C93.0875124,130.283608 93.2941488,140.137661 87.631518,146.057866 C80.7515872,153.231778 78.0520687,154.099729 68.3428094,157.256308 C61.0047563,159.648937 50.2804669,162.671173 49.8757385,162.788938 L49.8647511,162.792196 L49.8369346,162.805151 L49.7918985,162.822423 C49.7839509,162.826741 49.0541008,163.16068 47.7162628,162.90159 C46.3982938,162.643939 44.2352351,161.754397 41.4456443,158.964862 C34.6836022,152.172388 25.3942386,142.869621 23.4033768,140.688947 C23.1172649,140.378039 22.7543267,140.019632 22.3463524,139.607966 L21.9769725,139.237262 C19.5498903,136.792789 15.5385456,132.517827 14.5935155,126.780137 L14.5719908,126.643035 L14.5484793,126.51241 L15.169713,127.331422 C15.169713,127.331422 18.4533765,130.765803 19.698493,131.874132 C20.9489078,132.989658 21.1131572,131.216332 21.1131572,131.216332 C21.1131572,131.216332 21.7304171,121.511975 22.1330931,117.294567 C22.549015,113.081477 21.1939574,112.577691 21.1939574,112.577691 C21.1939574,112.577691 17.8652577,109.136113 16.4625148,107.860815 C15.0730178,106.599911 14.9193651,108.561797 14.9193651,108.561797 C14.9193651,108.561797 14.3829053,116.996613 14.0610295,121.411218 C13.7947865,115.594649 14.4637054,110.103382 14.8345912,108.062329 C15.4147625,104.878402 16.8744629,103.546968 18.0109628,103 Z M200.921286,116.860563 C190.904507,132.79514 190.265251,151.19696 199.517847,157.975069 C208.757153,164.753178 224.390346,157.329944 234.425731,141.401102 C244.450485,125.466525 245.08974,107.064704 235.833157,100.285162 C226.589864,93.5113539 210.956672,100.936021 200.921286,116.860563 Z M41.86554,134.545637 C41.86554,134.545637 40.8045418,147.337482 40.3859708,149.561338 C39.9673997,151.777996 41.469487,153.437611 41.469487,153.437611 C41.469487,153.437611 44.420678,156.748204 46.3982938,158.61797 C48.3851818,160.497811 48.2686177,157.680928 48.2686177,157.680928 C48.2686177,157.680928 49.0342319,149.177021 49.5667179,144.179464 C50.1031776,139.183347 48.3653129,138.596076 48.3653129,138.596076 C48.3653129,138.596076 46.7943468,136.988279 44.3597467,134.711167 C41.9251467,132.447009 41.86554,134.545637 41.86554,134.545637 Z M232.304598,102 C233.119459,102.349402 233.905453,102.800893 234.644208,103.364538 C242.501522,109.440973 241.610554,125.99516 232.648388,140.349408 C224.730714,153.022787 211.419994,161.501901 201,154.440526 C209.443857,157.948926 222.187716,150.026267 229.042526,139.049574 C237.937772,124.801729 239.278816,108.579689 232.304598,102 Z M209.15864,140.236904 L209.26696,140.321466 L210.963558,141.784383 C210.975705,141.797696 210.987853,141.806571 211,141.811008 C210.129431,141.487066 208.856645,142.108325 207.944235,143.381906 C207.267741,144.320118 206.949724,145.38605 207.028898,146.219962 C207.119785,145.635291 207.431385,144.985254 207.946744,144.39508 C209.026265,143.154925 210.597004,142.645273 211.456274,143.262083 C212.315543,143.865825 212.138763,145.368647 211.050548,146.606187 C209.975374,147.842421 208.400288,148.354687 207.541018,147.739184 C207.228723,147.517858 207.054428,147.178981 207.0109,146.777886 L205.537684,145.510458 C204.87277,144.940114 204.819604,143.775014 205.405729,142.833925 L205.50934,142.679292 L206.749733,140.947162 C207.408801,140.04079 208.454014,139.743163 209.15864,140.236904 Z M208.792973,144.990981 C208.290162,145.55944 208.207568,146.248124 208.607498,146.522552 C208.991489,146.800901 209.718897,146.569597 210.213013,146.001138 C210.711477,145.4366 210.789724,144.753143 210.394141,144.470874 C210.005803,144.192526 209.282742,144.430363 208.792973,144.990981 Z M35.3293035,131.732808 C36.7096607,137.207986 35.8908732,142.216851 33.5018453,142.918499 C31.1047373,143.617242 28.0558314,139.74583 26.6714342,134.2692 C25.291077,128.79257 26.1058244,123.785157 28.5029324,123.082057 C30.8919603,122.380409 33.9529864,126.256178 35.3293035,131.732808 Z M221.199797,137.022446 C221.381909,137.058928 221.538354,137.151654 221.660577,137.309744 C221.884245,137.559039 221.988134,137.952744 221.966134,138.410292 C222.007201,138.535548 222.013067,138.682207 221.971844,138.811354 L221.931912,138.904323 L221.63491,139.792058 L221.058019,140.527784 C220.968796,140.685874 220.824573,140.7786 220.682795,140.763399 C220.369904,140.957971 220.05457,141.046137 219.768568,140.976212 C219.586456,140.93973 219.433678,140.837884 219.302899,140.699555 C219.057232,140.403136 218.957009,139.963829 219.016898,139.422675 C219.065787,138.922564 219.269899,138.392051 219.574234,137.948183 C220.04357,137.271741 220.682795,136.902358 221.199797,137.022446 Z M219.991617,118.09608 C220.887653,118.275519 221.677445,118.703302 222.304671,119.372252 C223.410636,120.529276 223.940578,122.28491 223.827933,124.346308 C224.077863,124.998988 224.06212,125.766261 223.737322,126.417031 L223.641045,126.591452 L222.161305,130.57931 L219.293989,133.885299 C218.85109,134.61454 218.122741,134.982032 217.405912,134.928918 C215.867289,135.820372 214.265944,136.187864 212.852767,135.907938 C211.95673,135.728499 211.170778,135.300716 210.543553,134.633202 C209.308302,133.335497 208.787321,131.317164 209.079173,128.937082 C209.351824,126.653179 210.356665,124.28171 211.890167,122.27199 C214.231383,119.222958 217.417432,117.572117 219.991617,118.09608 Z M210.084014,130.418533 C210.126256,131.763609 210.524352,132.933553 211.291103,133.737441 C211.766002,134.239871 212.354826,134.562862 213.043494,134.706413 C213.879019,134.865625 214.785423,134.761461 215.704041,134.418728 L215.979934,134.308776 L210.71508,131.17792 C210.450109,130.972641 210.24274,130.709942 210.084014,130.418533 Z M203.199116,129.018581 C203.380583,129.05963 203.53282,129.161492 203.655828,129.313525 C203.884793,129.564379 203.988314,129.956624 203.970046,130.409682 C204.006096,130.539822 204.013306,130.684557 203.971098,130.815087 L203.929855,130.90987 L203.632688,131.797742 L203.059058,132.533581 C202.970151,132.694736 202.828875,132.778354 202.680291,132.764671 C202.369727,132.963834 202.054292,133.042891 201.776611,132.977517 C201.595144,132.941029 201.439253,132.843728 201.313809,132.694736 C201.061704,132.413475 200.961837,131.964978 201.012988,131.428302 C201.072665,130.923553 201.276054,130.405121 201.584183,129.956624 C202.050638,129.267915 202.680291,128.912158 203.199116,129.018581 Z M356.13662,53.6142422 C367.016852,62.5025546 366.546727,85.0107685 355.096005,103.877214 C343.633398,122.747938 323.695329,131.002899 314.121147,122.890585 C301.986367,112.600056 304.232668,90.5440318 315.679428,71.6690279 C327.143356,52.8025828 345.256387,44.7216505 356.13662,53.6142422 Z M230.295115,121.10519 C230.585858,121.264469 230.806607,121.573162 230.896791,121.988981 C230.972168,122.088214 231.007919,122.218118 230.998529,122.349106 L230.982936,122.447087 L230.888714,123.335107 L230.459331,124.170974 C230.413566,124.342939 230.283001,124.46698 230.122823,124.506448 C229.848233,124.779902 229.533263,124.956096 229.210215,124.991335 C229.021771,125.016707 228.825251,124.987106 228.652959,124.892666 C228.324528,124.7207 228.095703,124.359854 228.021671,123.862281 C227.957062,123.395718 228.037824,122.858677 228.251842,122.365333 C228.574889,121.598534 229.152336,121.07136 229.733821,121.006521 C229.930341,120.985377 230.118785,121.014978 230.295115,121.10519 Z M216.906691,119.669403 C217.041097,119.717852 217.173342,119.77922 217.298567,119.862592 L217.421272,119.953635 L222.729648,123.114637 C222.624684,121.970532 222.239388,120.969979 221.557121,120.263706 C221.086061,119.761276 220.494677,119.432543 219.800889,119.297605 C218.904853,119.113859 217.915372,119.25454 216.906691,119.669403 Z M22.0278837,101.085893 L21.9428631,101.180655 L21.6056132,103.389928 C21.3462545,104.974256 21.3029291,105.824818 21.5599763,106.153446 L21.6056132,106.203421 L37.0040479,120.906609 C37.3060066,121.183324 38.0732681,121.283986 38.1115886,120.615713 L38.1110212,120.497113 L38.4694319,117.272692 C38.3962107,115.73103 38.5326683,115.458742 37.7929452,114.704939 L37.6811928,114.593788 L23.1424148,100.920067 C22.8677316,100.650447 22.3800633,100.729747 22.0278837,101.085893 Z M328.13907,81.9895125 C319.64512,95.9817218 319.355914,113.20773 324.479752,116.736808 C332.173433,122.061808 344.556481,116.171928 353.058355,102.188277 C361.548343,88.196068 362.533494,72.0256445 355.24523,66.0615883 C347.955646,60.1203556 336.640944,67.9973033 328.13907,81.9895125 Z M213.194776,113.021332 C213.38018,113.062383 213.532651,113.150566 213.663166,113.298046 C213.877845,113.562597 213.985184,113.945739 213.966887,114.407943 C214.008847,114.534441 214.012555,114.681373 213.968644,114.810595 L213.926635,114.903595 L213.625353,115.796074 L213.054503,116.52739 C212.972779,116.688553 212.827627,116.772175 212.678815,116.763053 C212.371435,116.957665 212.051856,117.041287 211.77009,116.980471 C211.588345,116.93942 211.432215,116.846675 211.30658,116.693114 C211.057747,116.407277 210.957727,115.958757 211.016275,115.431176 C211.072385,114.92184 211.268767,114.39882 211.577367,113.945739 C212.040878,113.266117 212.682475,112.905781 213.194776,113.021332 Z M227.162067,108.236363 L227.270995,108.320876 L228.963557,109.78295 C228.975705,109.79182 228.987852,109.805125 229,109.813995 C228.129424,109.485805 226.860677,110.106706 225.940161,111.379554 C225.319724,112.246363 225.003499,113.219438 225.019195,114.019115 L225.03,114.213 L225.068503,114.018384 C225.192806,113.487868 225.490676,112.916877 225.949739,112.393037 C227.024697,111.156476 228.599466,110.646688 229.454217,111.25974 C230.31766,111.875407 230.136569,113.366862 229.052919,114.604731 C227.977961,115.849135 226.398845,116.349773 225.544095,115.741949 C225.231253,115.519829 225.056103,115.181367 225.011478,114.781212 L223.53764,113.50688 C222.868884,112.931263 222.822784,111.762558 223.406226,110.834146 L223.509296,110.681779 L224.745649,108.955082 C225.404723,108.040805 226.453598,107.742927 227.162067,108.236363 Z M351.817054,67 C352.580432,67.3026201 353.24291,67.8084078 353.970441,68.1976938 C362.133929,72.5423529 359.491981,88.4277792 352.237908,100.492804 C342.627323,116.486207 333.026032,118.206738 327,114.109289 C334.570045,115.181957 342.676445,108.917862 348.933481,99.3476779 C357.051829,86.9274653 358.244025,72.7625695 351.817054,67 Z M226.791451,112.993018 C226.297434,113.562934 226.21051,114.242651 226.601668,114.524995 C226.994273,114.803417 227.712844,114.572052 228.215553,114.007364 C228.713916,113.438755 228.787801,112.755117 228.396644,112.472773 C228.008384,112.198272 227.285468,112.424409 226.791451,112.993018 Z M334.563166,103.260193 C335.254754,103.870345 335.108132,105.370119 334.243971,106.603592 C333.378512,107.845843 332.123791,108.353572 331.432203,107.73903 C330.749697,107.137657 330.888534,105.637883 331.756588,104.395632 C332.620749,103.157769 333.88066,102.645651 334.563166,103.260193 Z M332.459205,101.194505 L332.559535,101.27446 L333.968521,102.535924 C333.979854,102.540181 333.992445,102.552951 334,102.557208 C333.27599,102.276252 332.210751,102.806947 331.447707,103.899553 C330.6897,104.987902 330.479422,106.283421 330.884868,107 L330.871175,106.992905 L330.854648,106.981553 L329.440625,105.721509 C328.896673,105.238058 328.853522,104.249316 329.326919,103.447342 L329.421738,103.299329 L330.459276,101.819344 C331.006306,101.043405 331.873427,100.781334 332.459205,101.194505 Z M332.431308,104.988225 C332.036856,105.561797 331.965492,106.252425 332.285984,106.527506 C332.601286,106.808439 333.169608,106.572865 333.573143,106.002219 C333.967595,105.441815 334.025984,104.759967 333.718468,104.480497 C333.399273,104.195174 332.827058,104.430748 332.431308,104.988225 Z M342.082297,99.0003903 L342.224739,99.0127215 C342.400334,99.0367324 342.551065,99.1060972 342.68315,99.2154801 C342.891377,99.4062332 342.99549,99.6983655 342.972181,100.039854 C343.009476,100.130561 343.010967,100.239197 342.966314,100.341857 L342.924009,100.417358 L342.617885,101.078991 L342.039821,101.635243 C341.945032,101.760633 341.803624,101.816659 341.662216,101.816659 C341.349875,101.967394 341.032873,102.028755 340.745395,101.987403 C340.569801,101.955388 340.414407,101.890025 340.291647,101.784644 C340.044571,101.573882 339.960659,101.232394 340.016601,100.838882 C340.078758,100.461378 340.276107,100.063865 340.597772,99.7277122 C340.985548,99.3086132 341.485671,99.0448904 341.934727,99.005221 L342.082297,99.0003903 Z M342.193472,82.0573851 C342.846226,82.1920428 343.403734,82.5272545 343.854566,83.0687502 C344.643204,84.014219 345.006409,85.44818 344.890844,87.1557539 C345.057715,87.6779105 345.036342,88.2952156 344.805431,88.836402 L344.720671,89.0137433 L343.568827,92.3558321 L341.432773,95.1363698 C341.107666,95.7509245 340.570477,96.0746759 340.042178,96.0431603 C338.909384,96.806698 337.742301,97.1462072 336.726341,96.9413557 C336.065968,96.8024004 335.50973,96.4657562 335.053818,95.925693 C334.176284,94.8799472 333.828318,93.2196468 334.079767,91.24419 C334.307088,89.3446573 335.076677,87.3706331 336.227251,85.678817 C337.978511,83.1031309 340.324107,81.6906578 342.193472,82.0573851 Z M334.783319,92.4561091 C334.798559,93.5634536 335.065248,94.5218151 335.610056,95.1764806 C335.958022,95.5861837 336.370756,95.8383088 336.881275,95.9385857 C337.472182,96.0610669 338.125838,95.9561199 338.796878,95.6602956 L339.021139,95.5546681 L335.235421,93.0663662 C335.041119,92.9016254 334.895075,92.6867462 334.783319,92.4561091 Z M329.094371,91.0009118 L329.226024,91.013633 C329.400931,91.0416274 329.555716,91.1109469 329.68264,91.2202584 C329.89934,91.4108869 330.003046,91.7028286 329.965897,92.0400945 C330.011714,92.1307431 330.010971,92.244427 329.966046,92.3449723 L329.924105,92.4173525 L329.617631,93.0825529 L329.043377,93.6371087 C328.948958,93.7597509 328.797269,93.8237381 328.656414,93.8157397 C328.354583,93.9663763 328.040369,94.0303635 327.747825,93.9863723 C327.577561,93.9623771 327.422776,93.8930576 327.300496,93.7877453 C327.055935,93.5771207 326.956872,93.2398548 327.017239,92.8426008 C327.083796,92.4653429 327.295852,92.0680889 327.602327,91.730823 C327.99058,91.3053525 328.500296,91.0344807 328.958597,91.0030672 L329.094371,91.0009118 Z M350.089324,85.0002545 L350.232851,85.0116789 C350.397479,85.039687 350.554341,85.1050394 350.681694,85.2144046 C350.903786,85.4051269 350.998525,85.697212 350.970569,86.0386449 C351.007843,86.1325389 351.012316,86.2392367 350.96888,86.3368865 L350.927083,86.4080859 L350.614912,87.0816156 L350.038715,87.6417789 C349.953295,87.7551453 349.802645,87.8191639 349.661314,87.8111616 C349.353802,87.9658734 349.027653,88.0312258 348.754309,87.9858792 C348.569492,87.9618722 348.423501,87.8925187 348.291488,87.7791523 C348.044547,87.5684242 347.96068,87.2389948 348.016592,86.8415456 C348.088034,86.4601011 348.280617,86.0626519 348.597447,85.7305551 C348.988826,85.3082502 349.48937,85.0466532 349.940861,85.0056646 L350.089324,85.0002545 Z M339.925343,83.4254498 C340.010853,83.4541004 340.092412,83.4967579 340.171525,83.5517245 L340.288549,83.6431941 L344.102206,86.1544165 C344.045058,85.2118128 343.782179,84.3924065 343.298328,83.8179626 C342.959252,83.412557 342.537628,83.1547019 342.030919,83.0587225 C341.381975,82.9197673 340.655564,83.0587225 339.925343,83.4254498 Z M342.690727,37.4007318 L342.553799,37.4296148 L174.646983,79.8482183 C173.738392,80.0787386 173.174986,81.0681147 173.383949,82.0431727 C173.541332,82.7805514 174.091512,83.3117504 174.735593,83.4291583 C174.902234,83.4581523 175.074827,83.4654008 175.24556,83.4418432 L175.415383,83.4076812 L343.3222,40.9890777 C344.228146,40.7628528 344.799487,39.7777722 344.582589,38.7984188 C344.382818,37.8625921 343.556407,37.2575694 342.690727,37.4007318 Z M337.095637,77.001034 L337.22658,77.0139085 C337.402082,77.0419041 337.557393,77.1072271 337.684748,77.2205426 C337.888206,77.4111793 337.996924,77.6991339 337.973627,78.0444128 C338.010902,78.1318657 338.009411,78.2397953 337.964383,78.3422645 L337.922374,78.4176873 L337.614858,79.0775833 L337.038654,79.6334957 C336.943914,79.7601424 336.801027,79.8241324 336.655035,79.8161336 C336.347519,79.9627772 336.032237,80.0307665 335.752677,79.9867734 C335.572516,79.9587778 335.417204,79.8894554 335.289849,79.7801393 C335.053776,79.5695058 334.954377,79.236225 335.019608,78.8429536 C335.077073,78.4656798 335.28519,78.0644096 335.597365,77.7311288 C335.994703,77.2989747 336.50421,77.0325352 336.960509,77.0027868 L337.095637,77.001034 Z M350.566825,75.2585047 C351.250502,75.8692083 351.111691,77.3703382 350.243798,78.6093195 C349.374607,79.8439073 348.116227,80.3520947 347.432551,79.7413911 C346.746279,79.1350811 346.892874,77.6383448 347.756875,76.3949699 C348.616985,75.1559885 349.87277,74.6478011 350.566825,75.2585047 Z M348.457602,73.1959128 L348.558035,73.2759643 L349.981093,74.5284077 C349.984874,74.5411878 349.988656,74.5539678 350,74.5582278 C349.275236,74.274227 348.224013,74.8138285 347.453873,75.8987115 C346.690035,76.9864345 346.479538,78.274378 346.892968,79 L346.874534,78.9909475 L346.858936,78.9786999 L345.443441,77.7305165 C344.895363,77.2346846 344.853075,76.2482879 345.329185,75.4496821 L345.424534,75.3023098 L346.460631,73.8155658 C347.003469,73.0404014 347.871229,72.7820133 348.457602,73.1959128 Z M348.427579,76.9924928 C348.029308,77.5621899 347.965741,78.2490483 348.282282,78.5287711 C348.597525,78.8143519 349.173526,78.5785646 349.573094,78.0117966 C349.959689,77.446493 350.031041,76.7508475 349.718392,76.4755183 C349.399256,76.1987246 348.831039,76.4345118 348.427579,76.9924928 Z M296.706693,16.4084055 L296.568781,16.43222 L135.639731,51.1534491 C134.721882,51.3524698 134.126735,52.3160734 134.311892,53.301154 C134.452082,54.0628733 135.015488,54.6198448 135.671472,54.7429799 C135.825218,54.7719739 135.981196,54.7792224 136.139964,54.7629133 L136.299683,54.7386845 L297.236668,20.0131599 C298.149226,19.8127075 298.741728,18.8548311 298.564507,17.8697505 C298.384838,16.9230421 297.577336,16.2968 296.706693,16.4084055 Z" id="Combined-Shape" fill="#1A1919"></path>
        <path d="M884.751519,103.434783 C887.993705,103.434783 890.243446,105.998054 890.243446,109.737396 C890.243446,113.993021 887.536912,117 883.62516,117 C880.451419,117 878.337079,114.43013 878.337079,110.911817 C878.337079,106.882169 880.981119,103.434783 884.751519,103.434783 Z M827.371549,79.6956522 C833.726947,79.6956522 838.28839,83.7805612 838.28839,90.4251057 C838.28839,99.4765941 830.518916,102.763567 817.865896,102.399077 C817.928006,103.423588 818.248665,105.026028 818.889982,106.050539 C820.111952,107.869703 822.229455,108.823615 824.933388,108.823615 C828.168863,108.823615 830.949726,108.025403 833.367062,106.753767 L833.726947,106.559511 L834.372598,114.148116 C830.708133,116.271021 826.145246,117 822.620889,117 C813.691556,117 809.06367,111.235484 809.06367,101.890105 C809.06367,91.0096023 816.002609,79.6956522 827.371549,79.6956522 Z M951.908465,79.6956522 C960.147346,79.6956522 964.928839,86.2519753 964.928839,94.4141961 C964.928839,107.456379 957.189327,117 946.558285,117 C938.755115,117 933.539326,111.095868 933.539326,102.207716 C933.539326,89.8963798 940.963372,79.6956522 951.908465,79.6956522 Z M597.963922,79.6956522 C606.204818,79.6956522 610.985019,86.2519753 610.985019,94.4141961 C610.985019,107.456379 603.247599,117 592.619431,117 C584.81837,117 579.595506,111.095868 579.595506,102.207716 C579.595506,89.8963798 587.021788,79.6956522 597.963922,79.6956522 Z M973.508073,103.434783 C976.750259,103.434783 979,105.998054 979,109.737396 C979,113.993021 976.287515,117 972.386178,117 C969.207973,117 967.093633,114.43013 967.093633,110.911817 C967.093633,106.882169 969.737674,103.434783 973.508073,103.434783 Z M717.395395,80.826087 L714.162897,99.7842434 C713.906858,101.442045 713.716283,103.184445 713.716283,104.481077 C713.716283,106.729439 714.548411,108.535288 716.886226,108.535288 C719.997105,108.535288 723.168285,104.421719 724.447389,97.6296325 L724.516492,97.2495478 L727.292192,80.826087 L736.543071,80.826087 L732.532272,104.69908 C731.80386,108.925168 731.298385,112.567601 730.923671,115.634519 L730.854922,116.202824 L722.639839,116.202824 L723.224656,110.490811 L723.090818,110.415974 C719.85541,115.039597 716.03664,117 712.22078,117 C707.113084,117 704.071161,113.816175 704.071161,107.085729 C704.071161,105.352715 704.237263,103.368794 704.622101,101.139084 L704.722898,100.576539 L708.081961,80.826087 L717.395395,80.826087 Z M555.081071,67.2608696 C561.761543,67.2608696 567.050071,69.0122129 570.680296,72.5754033 C574.183068,75.8442504 576.348315,80.6404128 576.348315,87.9139654 C576.348315,97.4359747 572.841246,105.581111 567.559878,110.452494 C562.589263,115.03444 556.288282,117 546.994335,117 C541.997317,117 537.657484,116.518124 535.426498,116.095524 L535.217228,116.054831 L543.165057,68.3515754 C546.864019,67.6238931 550.872302,67.2608696 555.081071,67.2608696 Z M686.716609,79.6956522 C694.963678,79.6956522 699.741573,86.2473471 699.741573,94.4132039 C699.741573,107.457599 692.006674,117 681.36995,117 C673.569969,117 668.35206,111.097247 668.35206,102.207066 C668.35206,89.8968279 675.772866,79.6956522 686.716609,79.6956522 Z M921.558968,103.434783 C924.795203,103.434783 927.044944,106.004652 927.044944,109.737396 C927.044944,113.994671 924.33841,117 920.431122,117 C917.252917,117 915.138577,114.435079 915.138577,110.911817 C915.138577,106.882169 917.787081,103.434783 921.558968,103.434783 Z M868.015787,79.6956522 C871.566966,79.6956522 874.399355,80.5071841 875.99383,81.414751 L876.172285,81.5198557 L873.906591,88.9628031 C872.60837,88.3076661 870.342676,87.4341501 867.620929,87.4341501 C865.094426,87.4341501 863.480028,88.6032166 863.480028,90.5719115 C863.480028,92.0299608 864.775334,93.2696311 867.301838,94.6636444 C870.800186,96.6257715 874.429667,99.479476 874.429667,104.439799 C874.429667,112.623265 868.276596,117.074584 859.849089,116.999054 C855.967346,116.926042 852.321146,115.835784 850.388511,114.373456 L850.194757,114.220879 L852.463365,106.85182 C854.277377,107.881321 857.646048,109.336086 860.691257,109.336086 C863.343066,109.336086 864.708311,107.881321 864.708311,106.122795 C864.708311,104.369195 863.6709,103.131167 860.749539,101.522059 C857.131714,99.479476 854.082134,96.4862059 854.082134,92.0299608 C854.082134,84.5820875 859.849089,79.6956522 868.015787,79.6956522 Z M754.357107,79.6956522 C757.912503,79.6956522 760.74804,80.507077 762.342197,81.418922 L762.520599,81.5245401 L760.251425,88.966505 C758.956627,88.3130962 756.688909,87.4380538 753.9726,87.4380538 C751.441262,87.4380538 749.824585,88.6020408 749.824585,90.5754011 C749.824585,92.0348996 751.117927,93.2727645 753.643439,94.6616686 C757.140414,96.6301036 760.769927,99.4817897 760.769927,104.441458 C760.769927,112.618918 754.619271,117.074575 746.199441,116.999056 C742.31359,116.92764 738.672716,115.837579 736.737158,114.375445 L736.543071,114.222889 L738.816615,106.854802 C740.624089,107.879242 743.997264,109.337099 747.041278,109.337099 C749.694959,109.337099 751.061125,107.879242 751.061125,106.125874 C751.061125,104.372505 750.019751,103.132999 747.108276,101.524103 C743.478762,99.4817897 740.434748,96.4905565 740.434748,92.0348996 C740.434748,84.5863677 746.199441,79.6956522 754.357107,79.6956522 Z M655.285932,79.6956522 C660.110458,79.6956522 662.940075,83.2323395 662.940075,89.2258715 C662.940075,90.5777044 662.715027,93.1412204 662.469954,94.9388714 L662.420733,95.2876041 L659.013909,115.869565 L650.01295,115.869565 L653.16372,96.5168384 C653.424114,95.1447076 653.609283,93.6329281 653.609283,92.2543021 C653.609283,89.8039526 652.644378,88.0697093 650.519272,88.0697093 C647.489704,88.0697093 644.46432,92.5277179 643.192896,99.4504385 L643.124077,99.8375572 L640.492649,115.869565 L631.548109,115.869565 L634.827629,96.4437663 C635.021478,95.0001874 635.210987,93.6329281 635.210987,92.40207 C635.210987,89.9517205 634.506476,88.0697093 632.25262,88.0697093 C629.158114,88.0697093 625.875225,92.801645 624.7256,99.6118161 L624.665022,99.9853251 L622.090013,115.869565 L613.149813,115.869565 L617.075978,92.0415812 C617.739048,87.8280461 618.234247,84.1884343 618.613438,81.1268071 L618.683189,80.5595262 L626.591939,80.5595262 L626.016179,86.26077 L626.143483,86.26077 C629.039645,81.7156884 632.894925,79.6956522 636.949842,79.6956522 C641.97111,79.6956522 644.158421,83.3070353 644.414475,86.408538 C647.244092,81.8585849 651.165918,79.6956522 655.285932,79.6956522 Z M424.211843,67.2608696 L425.567995,85.7220853 C425.808335,90.0040752 426.218645,95.1696718 426.317806,100.272304 L426.332634,101.228079 L426.59088,101.228079 C428.172248,96.1035206 430.323348,90.7227544 432.131519,86.427653 L432.429548,85.7220853 L440.445274,67.2608696 L452.955056,67.2608696 L447.120716,115.869565 L438.135487,115.869565 L440.769884,95.8188229 C441.447359,90.7779557 442.354058,84.4038804 443.502679,77.7258609 L443.653872,76.8531758 L443.460548,76.8531758 C441.210824,82.7967418 438.677528,89.1318979 436.397954,94.31818 L436.020466,95.1716585 L427.166524,115.079668 L419.98036,115.079668 L418.443868,95.389002 C418.077924,90.3210885 417.770571,84.0103882 417.521811,77.8280653 L417.48302,76.8531758 L417.351733,76.8531758 C416.186199,83.006982 414.957066,89.9532649 413.897974,95.1509846 L413.760815,95.8188229 L409.458639,115.869565 L401,115.869565 L411.833348,67.2608696 L424.211843,67.2608696 Z M916.704687,79.6956522 C917.124257,79.6956522 917.545403,79.6956522 917.965761,79.727224 L918.385768,79.7704891 L916.644399,89.902764 C916.205551,89.8230463 915.706415,89.8230463 915.207278,89.8230463 C909.568204,89.8230463 906.883535,95.5602295 905.725634,102.362176 L905.669005,102.703139 L903.549077,115.869565 L894.573034,115.869565 L898.002494,94.8176005 C898.850044,89.629243 899.225219,83.8973451 899.530821,80.7856723 L899.560192,80.4928286 L907.354292,80.4928286 C907.20399,82.4021474 907.092273,84.310425 906.928691,86.256811 L906.794866,87.7243574 L906.978537,87.7243574 C909.158754,83.0275242 912.527925,79.6956522 916.704687,79.6956522 Z M802.606931,79.6956522 C805.181349,79.6956522 807.411062,80.2081904 808.84409,80.7463555 L809.06367,80.8314709 L806.738605,88.7040349 C805.639246,88.2095071 804.348188,87.8553613 802.474775,87.8553613 C795.891689,87.8553613 791.755658,94.0241972 791.755658,100.547179 C791.755658,105.304217 794.53528,107.716237 797.955348,107.716237 C800.529514,107.716237 802.401141,107.084836 803.959194,106.406639 L804.216033,106.293273 L804.282837,114.025455 C802.28453,115.094273 799.054708,115.869565 795.307882,115.869565 C787.496185,115.869565 782.003745,110.622784 782.003745,101.687783 C782.003745,89.3405401 790.598209,79.6956522 802.606931,79.6956522 Z M779.838951,80.826087 L773.893165,115.869565 L764.685393,115.869565 L770.632618,80.826087 L779.838951,80.826087 Z M483.62134,67.2608696 L488.674157,115.869565 L478.949895,115.869565 L478.113755,103.250671 L465.70406,103.250671 L460.646925,115.869565 L450.790262,115.869565 L471.781544,67.2608696 L483.62134,67.2608696 Z M526.558052,67.2608696 L525.026076,76.3455005 L513.543422,76.3455005 L506.90916,115.869565 L497.725906,115.869565 L504.355865,76.3455005 L493.003745,76.3455005 L494.601706,67.2608696 L526.558052,67.2608696 Z M950.707433,87.7136699 C945.4874,87.7136699 942.908506,96.5280818 942.908506,102.061874 C942.908506,106.215905 944.669737,108.986898 947.875318,108.986898 C952.721885,108.986898 955.554,100.536271 955.554,94.4846589 C955.554,91.2089554 954.297797,87.7136699 950.707433,87.7136699 Z M596.7717,87.7136699 C591.548836,87.7136699 588.970639,96.5280818 588.970639,102.061874 C588.970639,106.215905 590.731393,108.986898 593.936108,108.986898 C598.781364,108.986898 601.612714,100.536271 601.612714,94.4846589 C601.612714,91.2089554 600.356851,87.7136699 596.7717,87.7136699 Z M685.519659,87.7123834 C680.30175,87.7123834 677.719678,96.5288213 677.719678,102.062857 C677.719678,106.215432 679.483976,108.983269 682.687161,108.983269 C687.534383,108.983269 690.366881,100.532271 690.366881,94.4836699 C690.366881,91.2078224 689.113338,87.7123834 685.519659,87.7123834 Z M555.081071,75.6251281 C553.620031,75.6251281 552.370774,75.7460451 551.440295,75.9349779 L551.194512,75.9881516 L545.782828,108.277624 C546.864019,108.411713 548.205842,108.49184 549.796839,108.49184 C554.758862,108.49184 559.155228,106.52628 561.956301,102.820824 C564.884825,99.0336053 566.414245,93.8744195 566.414245,87.9842808 C566.414245,80.2070738 562.658001,75.6251281 555.081071,75.6251281 Z M476.257266,75.3382597 L476.129183,75.3382597 C475.138455,78.0486998 474.029219,81.425599 472.967749,84.1371749 L472.679566,84.8591994 L468.388054,95.3160135 L477.728066,95.3160135 L476.834361,84.8591994 C476.707716,82.1894436 476.454428,78.2951035 476.257266,75.3382597 Z M826.211689,87.3630658 C821.908796,87.3630658 819.408525,91.4496166 818.767207,94.7316637 C826.022472,94.8055467 829.617605,93.7120783 829.617605,90.3545064 C829.617605,88.6010165 828.330637,87.3630658 826.211689,87.3630658 Z M752.066778,65 L754.551627,70.8762542 L754.674681,70.8762542 L758.342525,65 L764.685393,65 L757.099402,76.3043478 L750.943911,76.3043478 L746.284644,65 L752.066778,65 Z M777.444009,65 C780.131824,65 782.003745,67.0775377 782.003745,70.2791539 C782.003745,73.9814237 779.684663,76.1995635 776.896829,76.3007304 L776.696926,76.3043478 L776.573348,76.3043478 C774.073709,76.3043478 772.262172,74.2184464 772.262172,71.0971216 C772.262172,67.4539033 774.701427,65 777.444009,65 Z" id="Combined-Shape" fill="#1A1919"></path>
    </g>
</svg>