<?xml version="1.0" encoding="iso-8859-1"?>
<!-- Generator: Adobe Illustrator 19.0.0, SVG Export Plug-In . SVG Version: 6.00 Build 0)  -->
<svg version="1.1" id="Capa_1" xmlns="http://www.w3.org/2000/svg" xmlns:xlink="http://www.w3.org/1999/xlink" x="0px" y="0px"
	 viewBox="0 0 512 512" style="enable-background:new 0 0 512 512;" xml:space="preserve">
<path style="fill:#269BD8;" d="M42.667,413.876h51.2c0-28.279,22.921-51.2,51.2-51.2l0,0c28.279,0,51.2,22.921,51.2,51.2h119.467
	c0-28.279,22.921-51.2,51.2-51.2l0,0c28.279,0,51.2,22.921,51.2,51.2h51.2v-17.067H486.4v-85.333l-34.133-145.067v-42.667H332.8
	v187.733H25.6v85.333h17.067V413.876z"/>
<g>
	<polygon style="fill:#90D1F3;" points="486.4,311.475 375.467,311.475 375.467,166.409 452.267,166.409 	"/>
	<rect x="25.6" y="81.075" style="fill:#90D1F3;" width="307.2" height="196.267"/>
</g>
<g style="opacity:0.25;enable-background:new    ;">
	<path style="fill:#269BD8;" d="M375.467,311.475V166.409h25.677c0,80.119-5.325,145.067,72.678,145.067H375.467z"/>
</g>
<g>
	<rect x="25.6" y="46.942" style="fill:#0D529E;" width="307.2" height="34.133"/>
	<rect x="25.6" y="277.342" style="fill:#0D529E;" width="307.2" height="34.133"/>
</g>
<g style="opacity:0.25;enable-background:new    ;">
	<path style="fill:#269BD8;" d="M25.6,277.342V81.075h29.278c0,108.373,120.61,196.267,269.389,196.267H25.6z"/>
</g>
<g>
	<rect x="8.533" y="396.8" style="fill:#FCBF29;" width="34.133" height="34.133"/>
	<rect x="469.333" y="396.8" style="fill:#FCBF29;" width="34.133" height="34.133"/>
</g>
<g>
	<path style="fill:#0D529E;" d="M366.933,362.676c-28.279,0-51.2,22.921-51.2,51.2c0,28.279,22.921,51.2,51.2,51.2
		s51.2-22.921,51.2-51.2l0,0C418.133,385.596,395.213,362.676,366.933,362.676z M366.933,430.942
		c-9.429,0-17.067-7.637-17.067-17.067c0-9.429,7.637-17.067,17.067-17.067S384,404.446,384,413.876
		C384,423.305,376.363,430.942,366.933,430.942z"/>
	<path style="fill:#0D529E;" d="M145.067,362.676c-28.279,0-51.2,22.921-51.2,51.2c0,28.279,22.921,51.2,51.2,51.2
		s51.2-22.921,51.2-51.2l0,0C196.267,385.596,173.346,362.676,145.067,362.676z M145.067,430.942
		c-9.429,0-17.067-7.637-17.067-17.067c0-9.429,7.637-17.067,17.067-17.067c9.429,0,17.067,7.637,17.067,17.067
		C162.133,423.305,154.496,430.942,145.067,430.942z"/>
</g>
<path style="fill:#FCBF29;" d="M273.067,234.675v-21.649c21.077-18.85,22.878-51.217,4.028-72.294
	c-18.85-21.077-51.217-22.878-72.294-4.028s-22.878,51.217-4.028,72.294c1.263,1.417,2.611,2.765,4.028,4.028v21.649H273.067z"/>
<g style="opacity:0.5;enable-background:new    ;">
	<path style="fill:#F28D01;" d="M260.267,204.809c-28.279-0.034-51.174-22.98-51.14-51.26c0.009-8.311,2.039-16.486,5.914-23.834
		c-24.969,13.158-34.543,44.066-21.385,69.035c2.833,5.385,6.613,10.214,11.145,14.276v21.649h68.267v-21.649
		c4.463-4.028,8.183-8.798,11.008-14.106C276.736,202.795,268.561,204.817,260.267,204.809z"/>
</g>
<path d="M366.933,388.276c-14.14,0-25.6,11.46-25.6,25.6c0,14.14,11.46,25.6,25.6,25.6s25.6-11.46,25.6-25.6l0,0
	C392.533,399.736,381.073,388.276,366.933,388.276z M366.933,422.409c-4.71,0-8.533-3.823-8.533-8.533
	c0-4.71,3.823-8.533,8.533-8.533s8.533,3.823,8.533,8.533C375.467,418.586,371.644,422.409,366.933,422.409z"/>
<path d="M145.067,388.276c-14.14,0-25.6,11.46-25.6,25.6c0,14.14,11.46,25.6,25.6,25.6c14.14,0,25.6-11.46,25.6-25.6l0,0
	C170.667,399.736,159.206,388.276,145.067,388.276z M145.067,422.409c-4.71,0-8.533-3.823-8.533-8.533
	c0-4.71,3.823-8.533,8.533-8.533c4.71,0,8.533,3.823,8.533,8.533C153.6,418.586,149.777,422.409,145.067,422.409z"/>
<path d="M503.467,388.276h-8.533v-76.8c-0.051-0.649-0.179-1.297-0.384-1.92h0.162L460.8,165.41v-41.668
	c0-4.71-3.823-8.533-8.533-8.533H341.333V46.942c0-4.71-3.823-8.533-8.533-8.533H25.6c-4.71,0-8.533,3.823-8.533,8.533v341.333
	H8.533c-4.71,0-8.533,3.823-8.533,8.533v34.133c0,4.71,3.823,8.533,8.533,8.533h34.133c4.71,0,8.533-3.823,8.533-8.533v-8.533
	h34.816c4.685,32.614,34.918,55.253,67.533,50.569c26.214-3.763,46.805-24.354,50.569-50.569h103.765
	c4.685,32.614,34.918,55.253,67.533,50.569c26.214-3.763,46.805-24.354,50.569-50.569H460.8v8.533c0,4.71,3.823,8.533,8.533,8.533
	h34.133c4.71,0,8.533-3.823,8.533-8.533v-34.133C512,392.098,508.177,388.276,503.467,388.276z M384,302.942v-128h51.2v128H384z
	 M452.267,203.674l23.356,99.268h-23.356V203.674z M34.133,285.875h290.133v17.067H34.133V285.875z M324.267,268.809H34.133v-179.2
	h290.133V268.809z M324.267,55.475v17.067H34.133V55.475C34.133,55.475,324.267,55.475,324.267,55.475z M34.133,422.409H17.067
	v-17.067h17.067V422.409z M145.067,456.542c-23.561,0-42.667-19.106-42.667-42.667s19.106-42.667,42.667-42.667
	s42.667,19.106,42.667,42.667C187.708,437.428,168.619,456.517,145.067,456.542z M366.933,456.542
	c-23.561,0-42.667-19.106-42.667-42.667s19.106-42.667,42.667-42.667s42.667,19.106,42.667,42.667
	C409.574,437.428,390.485,456.517,366.933,456.542z M460.8,396.809v8.533h-34.816c-4.685-32.614-34.918-55.253-67.533-50.569
	c-26.214,3.763-46.805,24.354-50.569,50.569H204.117c-4.685-32.614-34.918-55.253-67.533-50.569
	c-26.214,3.763-46.805,24.354-50.569,50.569H51.2v-8.533c0-4.71-3.823-8.533-8.533-8.533h-8.533v-68.267H332.8
	c4.71,0,8.533-3.823,8.533-8.533v-179.2h102.4v25.6h-68.267c-4.71,0-8.533,3.823-8.533,8.533v145.067
	c0,4.71,3.823,8.533,8.533,8.533h102.4v68.267h-8.533C464.623,388.276,460.8,392.098,460.8,396.809z M494.933,422.409h-17.067
	v-17.067h17.067V422.409z"/>
<rect x="443.733" y="337.076" width="17.067" height="17.067"/>
<path d="M298.667,174.942c0.051-32.99-26.658-59.767-59.648-59.819s-59.767,26.658-59.819,59.648
	c-0.026,15.659,6.11,30.703,17.067,41.89v9.481H179.2v17.067h119.467v-17.067H281.6v-9.472
	C292.514,205.517,298.641,190.541,298.667,174.942z M247.467,226.142v-22.067l23.1-23.1L258.5,168.909l-19.567,19.567
	l-19.567-19.567L207.3,180.975l23.1,23.1v22.067h-17.067v-13.116c0-2.423-1.033-4.736-2.842-6.357
	c-17.57-15.701-19.081-42.675-3.371-60.245c15.701-17.57,42.675-19.081,60.245-3.371s19.081,42.675,3.371,60.245
	c-1.058,1.186-2.185,2.313-3.371,3.371c-1.801,1.621-2.833,3.925-2.833,6.349v13.124H247.467z"/>
<rect x="76.8" y="140.809" width="17.067" height="17.067"/>
<rect x="110.933" y="140.809" width="42.667" height="17.067"/>
<rect x="59.733" y="174.942" width="93.867" height="17.067"/>
<rect x="59.733" y="209.076" width="76.8" height="17.067"/>
<g>
</g>
<g>
</g>
<g>
</g>
<g>
</g>
<g>
</g>
<g>
</g>
<g>
</g>
<g>
</g>
<g>
</g>
<g>
</g>
<g>
</g>
<g>
</g>
<g>
</g>
<g>
</g>
<g>
</g>
</svg>
